<mxfile host="app.diagrams.net" modified="2022-12-16T12:39:47.815Z" agent="5.0 (Windows)" etag="d-iftDxEFnQa7aqv-zPq" version="20.5.1" type="github">
  <diagram id="ZZCl0IzvArBequmC5LbJ" name="第 1 页">
    <mxGraphModel dx="1422" dy="772" grid="1" gridSize="10" guides="1" tooltips="1" connect="1" arrows="1" fold="1" page="1" pageScale="1" pageWidth="827" pageHeight="1169" math="0" shadow="0">
      <root>
        <mxCell id="0" />
        <mxCell id="1" parent="0" />
        <mxCell id="x7lhCnKFzgiBbyIF77EN-46" value="" style="ellipse;whiteSpace=wrap;html=1;fontSize=17;strokeColor=default;" vertex="1" parent="1">
          <mxGeometry x="93.76" y="100" width="320" height="180" as="geometry" />
        </mxCell>
        <mxCell id="x7lhCnKFzgiBbyIF77EN-5" value="" style="ellipse;whiteSpace=wrap;html=1;strokeColor=none;fillColor=#f9f7ed;" vertex="1" parent="1">
          <mxGeometry x="10.01" y="388.75" width="487.5" height="107.5" as="geometry" />
        </mxCell>
        <mxCell id="x7lhCnKFzgiBbyIF77EN-3" value="" style="shape=image;verticalLabelPosition=bottom;labelBackgroundColor=default;verticalAlign=top;aspect=fixed;imageAspect=0;image=data:image/png,iVBORw0KGgoAAAANSUhEUgAAAMgAAADICAYAAACtWK6eAAAKlUlEQVR4Xu2dj5EWRROHJQOJwJcIxAg8I1AiECJQIxAjkAw4IwAj4IwAjMAzAjQC7a66t+rEOu63PdM7Oz3PVE3x8dnz7+l92J3dvb0Hn1AgAIE7CTyADQQgcDcBBOHogMBHCCAIhwcEignyqa3nXEnuXAT+sume6xQzP/IZxCV4bPXC6tdWTzdE/f+nzE/ARbmy+vvNn/6/D1eOKIgL8KPVpzdnisNBY0JpBH6wnl+k9R7o+EiCIEYggQWbvLM1/WT19RHWdhRBXI6XVr85AhTmcAgCz2wWl6NncgRBXI43Vn2/QYHAbQJf2V+uRiI5giA/G4DvR0Jg7MMS8I38F1avR81wtCAuhgtCgcBdBHwv8mQUnpGC+KXVW6unUYtn3GkI+FnEN++7l5GC+Ib81e4rZsAZCVzapH3TvnsZKYhvzC92XzEDzkjA9yIPR0x8lCB+efV+xIIZc1oCQ277jhKEy6tpj9NhE/cn7P6kfdcySpDntkp/nYQCAZXAlQX6c5FdyyhBfHMeeWo+5E7GrhmpP9jJlhh54XTIPmSUINEN+vAnq/WP3/QVtjwY9o26i7JbGSXIH7ZC/5dka0GQrcSOF98iyCNbzvWeS0KQPWkzlhNoEWT3B4ajBPkneKxwBgmCO1AzBBGSgSACpKIhLYLs/g8kZ5CiR+GBl4UgQnI4gwiQioYgiJBYBBEgFQ1BECGxCCJAKhqCIEJiEUSAVDQEQYTEIogAqWgIggiJRRABUtEQBBESiyACpKIhCCIkFkEESEVDEERILIIIkIqGIIiQWAQRIBUNQRAhsQgiQCoagiBCYhFEgFQ0BEGExCKIAKloCIIIiUUQAVLREAQREosgAqSiIQgiJBZBBEhFQxBESCyCCJCKhiCIkFgEESAVDUEQIbEIIkAqGoIgQmIRRIBUNARBhMQiiACpaAiCCIlFEAFS0RAEERKLIAKkoiEIIiQWQQRIRUMQREgsggiQioYgiJBYBBEgFQ1BECGxCCJAKhqCIEJiEUSAVDQEQYTEIogAqWgIggiJRRABUtEQBBESiyACpKIhCCIkFkEESEVDEERILIIIkIqGIIiQWAQRIBUNQRAhsQgiQCoagiBCYhFEgFQ0BEGExCKIAKloCIIIiUUQAVLREAQREosgAqSiIQgiJBZBBEhFQxBESCyCCJCKhiCIkFgEESAVDUEQIbEIIkAqGoIgQmIRRIBUNARBhMQiiACpaAiCCIlFEAFS0RAEERKLIAKkoiEIIiQWQQRIRUMQREgsggiQioYgiJBYBBEgFQ1BECGxCCJAKhqCIEJiEUSAVDQEQYTEIogAqWgIggiJRRABUtEQBBESiyACpKIhCCIkFkEESEVDEERILIIIkIqGIIiQ2Kgg3vVfQv97hBxlHkdioszlZEFeI+Ura3QVaRht8yDasLFdiyCNQ9N8YgIIMnHymHo+AQTJZ8wIExNAkImTx9TzCSBIPmNGmJgAgkycPKaeTwBB8hkzwsQEEGTi5DH1fAIIks946Aj+cPG11T+tbn3Q+Km1+dLqxdAVjB0cQcbyTx392nr3BPufLeWxNX5p1f9crSBI4Yz/YGt70Wl9J+vnj059zdQNgsyUrY1zfWLxfnnVo/jl1vseHU3WB4JMlrAt0+15BvnGBn61ZfAisQhSJJF3LeML+w/vGtd4cSOHn0VWKwiyQMZ9H/Kr1dt3sW4f7B8e+Oe/+5+fW/Wzx4py+KGBIAsIwhLjBBAkzo6WCxBAkAWSzBLjBBAkzo6WCxBAkAWSzBLjBBAkzo6WCxBAkAWSzBLjBBAkzo6WCxBAkAWSzBLjBJYRJI6IlhDYkcCoD8ftuESGgkCcAILE2dFyAQIIskCSWWKcAILE2dFyAQIIskCSWWKcAILE2dFyAQIIskCSWWKcAILE2dFyAQIIskCSWWKcAILE2dFyAQKjBfGPD1xYPVn9zOr5YwRbP8u5QKqWXeLftnL/nljr12BCAEcKsvInNEPJWrxRz++KyShHCeJnjDc3Zw55sgQuT6DHd8U2QRwhiF9G+ceX/ftOFAhsIXBtwY+2NGiNHSHI9zZp/2XyFAhECDyzRpeRhpE2ewvil1Zvra76ZcBIjmjzXwJ+A8cvtfxskl72FsT3HRfpq2KA6gT8rpZ/LT+97CnIql8kT0/iogPssmHfSxC/pPJLK7/EokCgBwG/xErfsO8lyHNbzI89qNAHBG4RSN+w7yGInzXYmHNcZxBI37DvIQgb84xDgz7PBFI37NmCsDHnQN6DQNr3sjIF8Y25nz38nSsKBDIJpG3YMwVhY555SND3hwRSXmbMEuTCZu+/hZUn5hzIexFI2bBnCOJSuBwuCQUCexLovmHPEISXEfc8JBjrQwL+CoqL0qX0FuRks+KZR5fU0EmQgF9qPQy2/V+z3oL4pRU/59ErO/QTJfCTNXwebXy7XU9BeObRIyP00YuAv6d13dpZL0F4GbE1E7TvTeDKOvQHiE2llyB+OuNlxKZU0DiBQPOGvYcgJ1sYG/OE7NJlM4HmDXsPQdiYN+eRDhIJXFrf/lp8qLQKwsY8hJ1GOxMI//RhiyC8jLhzlhkuTMC/yuiSbC4tgrAx34ybBgMJhH76MCoIG/OBmWboEIHQy4xRQfgpwVCOaDSYwOaXGSOC8DLi4CwzfBOBTc9GtgrCpVVTbmh8AAKbno1sFYRnHgfIMFNoJiBv2LcIwqVVc17o4CAE5LOIKkjry4jXBuYXq1cHAcQ05ifgx+TXVp8GlyK9Eq8K8twmEX0Z8YW19cm4tRQI9CZwYR36XdWtRbrtqwriv/AmYqo/wfRXjpFja/qI30LAf9+MbwG2lnu/hKIKEp3A5vvOW1dIPARu5Ij8Uia/unFJ7izZgsibIdIMgQYC0bur9+5DVEF8Q/Q+uIB7LQ32SzMIOIHo3dWuexCfSPQyy9v6XuS8UWc/woHdg8DJOvnWavQjIfeePXyS6hnkvCD/ycHHPVZHHxAYSODKxvZXTu79x3qrIPwMyMCsMnQXApvurG4VxGfopzZ+Br1LruhkZwLXNp4/dvA/pRIRxDv2yyx/OONnFAoEZiCwWQ5fVFQQb8vl1gyHBXN0An5Z5XsO+cxxxtYiyLmP6D1oUgeBPQhc2SD+9u5mOVrPILcXF70XvQcgxliTgN+h8lu5l1bvvVt1F6IeZ5Bz374v+c7q0zXzwaoPRMDPGv4KiV9aNZWegpwn4g9uWh7gNC2IxksS8DOEy/CbVX//r1mMM8UMQW5n6GR/8dqr3HfX7L7/7vNQYnrNl37yCfjZ4tpq+DLqY1PMFiQfDyNAIJEAgiTCpev5CSDI/DlkBYkEECQRLl3PTwBB5s8hK0gkgCCJcOl6fgIIMn8OWUEiAQRJhEvX8xNAkPlzyAoSCSBIIly6np8AgsyfQ1aQSABBEuHS9fwEEGT+HLKCRAIIkgiXrucngCDz55AVJBJAkES4dD0/AQSZP4esIJEAgiTCpev5CSDI/DlkBYkEECQRLl3PTwBB5s8hK0gkgCCJcOl6fgIIMn8OWUEiAQRJhEvX8xNAkPlzyAoSCSBIIly6np8AgsyfQ1aQSABBEuHS9fwEEGT+HLKCRAIIkgiXrucngCDz55AVJBL4F+jG99jZSxQ9AAAAAElFTkSuQmCC;" vertex="1" parent="1">
          <mxGeometry x="280.01" y="415" width="60" height="60" as="geometry" />
        </mxCell>
        <mxCell id="x7lhCnKFzgiBbyIF77EN-4" value="" style="shape=image;verticalLabelPosition=bottom;labelBackgroundColor=default;verticalAlign=top;aspect=fixed;imageAspect=0;image=data:image/png,iVBORw0KGgoAAAANSUhEUgAAAMgAAADICAYAAACtWK6eAAAWHUlEQVR4Xu1dS2wV1xk+E0JSkUqAFJY1Zmd2F7JppARfuoBsqthdJTaJjJSXsmghyiIPBAQ5SRdVoVlEeUmxEkyyip2uAlIVQyqlG8jd4V3BWywFqU3UhMD0fNc+l7kzZ+45Z2au53G+X7KM8JmZc8783/zP8/+BIFntQKs9s02In9oivOdxeUFL/ozKH/l/taCbcpbyJ+iI4M6XnaVzc7WYdQUmGVRgDpWfQqt9SAIjPL0OjMrP12KCEijB0c7S2SWLsV4PIUAGvP6u1Lhz64QIxEyNpIU9Q4fiTOfS/FH7C/wbSYAMAsj4oQUhwomGs8VS5+L8/oavMfPyCJCUrWu1p4+IUECtaj4FQqpb82eav1D3FRIgmj1rtZ8YFeGm73Rq1ZYtW8SjjzwqHnxwh/x50H3HS7jixx9/FCsr18U3//xG4N9aCm7v6ix9fq2E6VX6kQSIDiDj0x/L/4bd0Ue7x3aLZ595rjbAiM8f4Pjwow/E5SuXdUxJVUuzKwRIbFO6hnl4699x6TEyslO89sprAhKk7vT2n98SV5evJpdBKZLYEwIkAZAnJ2SsQxrn/TR7alYAJE0gSJIXXnxeAxDaIvFNIUASAEka55Aa7737fhOw0VvDSy8fFaurq/1rCsM3OpfOnWzUQnMuhgCJA2Tf1EkZRDsR/W/YHq9K9apJ9Ld3zuhskTnp8j3cpHXmXQsBEgeIJvZx8MBBMT11KO9eV+r6hcUvxMJiXJMMFjsXz05WaqIlT4YASQBkGgb6aPS/4bmCa7dJBE8WpEiMbkoJsr1J68y7FgLEAiB/+uMR8dDeh/LudaWuh/0BOyROEiDkicimcDMim7EeIIQE6aO//uV0bWMfaahM92QxYBjdMwKkDyBTLREGiKD3CNFyAKSJpPVkBcF+ZvnefdsESD9AZiRAEEXvURM9WGpx2oAh87L6voUESB9AkjGQJnqw1JLnz50V5y+c7xeOjIUQIGnqUkuTg9VED5Zav96TRVcvbZAUhLQ0MZAmerDU8pHhe+z4sfhu0NUb2RGqWFEVazwZA2miB0stOcWTRYAQIHoRIlWsMPqXJuZgxVeu92TR1av2iRJkfSda7aSLF9m7yOJtMuk9WXT1EiAxrm+1k2nuSC+Bkd5k0nqy6OrtvXJKkJ4ESbp4JycmxeTEH5qMj25GbyIni65eAiTO9ToXb5M9WGr9OFkINauf6OqlihVXsTQu3mF5sFQRhesrK91ZrK7e6P6OFlRAUQgQUl12yJ9hFYlI8WRdk0mLuxotOi0XRxVLqVgaF+8nc59abmP6MAWGq8vLXXUGYEitLGLxNGQVAzT4PSYPchVBOH4bmxNdvesbS4DcBUifizePBwvMBjAgjSMvIEwAAFD2yp8851X0nqzN2ztLc6jp6zURIPL169Lcs3iwlqU+j9pTAEceKZGVI7OCRe/JoqsX74EA6QKkW5z66yhjuiQpAhg4vqotpZOV23NcB6DgiLBtYTtIOoCkj+jq7W4HAdIFyFQizd3Gg6WqFQ6sWJiD0fNeCikIN7UJKHT1pu80AdIFSDIGMsiDBfUJRQ+qCoz464Y0PHjgsVSg6D1ZdPVSgvQM9GQV9zQPFlSp8xe+KsXGyCtRIE0Q/NSRxpPVka7ePXmfWffrKUEgQcanYX+01cvUebDwlYWeDqlRZ0o7IanxZNHVSxtkjdUlQPpK/cDIhQ2iyFD0uXZ4wQfgiFxf1DbRe7Lo6vVeguhcvFEPFgzxM7J+VKJM5xBgoQpjb4SLGM9CMW5Vb1hbSC4I98h+hp0hLLU2tyRANGnu6pgt3J9gnCIZVkXBVeoI0ki2bHmgWzU+WjkegLyxHnVX0fi1SHysnm5OVoM7GB8ErSeLrl66eXUuXtThXZapIQBHEQS9f2xsrJsekrdCPGItKzKH64oES1FxFxjvAEmi4juzegkQnYt34vEJsfjlYi5sQBqA6YoARdpEIFngNEgE+TLMHFIT9+mXlnT1UsWKVTLZunWruHXrVma1SgEDcYeNbLaDzlF5PWw7duwQN26sZRavk/ddpwiQWJr7pns2idt3bmf4BgsBVWp6ajq3GpXp4fIi2CcqgJnlHvfee6/45Zdfopd67+olQDRp7q7MBcMbKgoAUgUq1PMW+O3qJUBilUxcGbyqjT1hS7wlTwoCLLnIc1ev1wDRVTJxYSYY4fAAbaSt4TI/jNUGAF1uEoSHZSxkzuWSJo31HCDJNHeblwtAKNeozfiyx2jT2W0n5XksxHOAJLN4bfhGBddsxlZljL44g83s/Hb1eg2QPfsO/SMMwt/ZsIka43KQyuW+GzE2i7oVhOLKd5fmm9Vey2GzvQaITFLEmeuttvuFA0iQHlW2OUxrSelum35ZKO50Ls1vMt23qX/3FiC6CPqgl4wUEST31RkcWF8m75bHhrqXAGm1Z7aJ8BZarY3afPnima8211R5DAKKx46/7pIt4G3A0E+A7Js6KYLghC0TN7EEKdJSkJ5iTZ4mLnoHEFfpgSj57Kk3a69a6YCgbX2QjhgvpYiHAElWcR/0FfWvBduA3fDQFvEPIJoavGks0eQOt2rNaMFmn47iX0zEK4Csq1c4f77NRvfGwamqJCDazDfLGOcAYuBX9ynPAGKvXuWpzZuFUcu8xskW8Sz1xC+AaNo8pzFmEz1XaWvVFmxIRaxfapZvAOkr7zPoq+2DeqXWn9IjJG17vPJmeQMQXXmfNA7wSb1Se+CmZvljh3gEEHv7o84JiVltGadERo/sEI8AYp/ablPZPSsjVvU6J2+WR1F1fwDiYKAPqzdhVcGh5vX0zFOWU/THUPcIIMkK7jpuQGLie+++b8kozRqmqfCetkBvmnx6BJD+AtU00JM74BBV98aTRYDE+MSH9JK0j4PLYSrZO8QL3vFikWAIeXqwr4ttGpNkad7ZFEXLzZPlR70sAiTG3T66eNUWOEXUPSko5wVA1pMUv7f50texYonNumzGOB2i8iRpkQCJcQ4BYnnKkACx+ebUYwwliN17ogRJ7hMlCCVIbwcIEALE+CmlikUVK8oklCCUIJQgAz6bBAgBQoAQIN1CcXTzGhRM2iC0QUq3QVTjzVXZ4hntn3fL7rdjFelMRYAQIKUCZGFxQZy/8FWi5Cc64aL+Vtl1fwkQAqQ0gJia2FThmC8BQoCUAhDbYtE2VRyXl6+KH2T/wQfkuZWiVTMChAApBSBQrZAIaCLUAcZpRh0BGB/IYtMAW5SKjNsQIASIiUe7DXKQ0VskvS27zeLMtw3hNGPcFjGpZ0XNmQAhQIw8WhSzqQeh7i1O6tkSmvREVSdb9ayIc/QECAFi5NOiAWL6+scnhO65qOqoCD08wLgmKuKgFwFCgJj4rHAVy0W9wuTg8kXZIRDsjrekemZDRRSbIEAIECOvFSlBHEt6ducWZXRXcH0y96lxfYMGECAEiJGBigSIq3qlJjd7albckN4qFFFwIVyHeEpWIkAIECPvFAkQlyoh0YnBDrl85bJDY5u1q/POnQAhQDYMIFCvUBAav10JalaW6+IGvutzCRACxMgzeb/C6gGQAK4qknFyhgFRAz/LvQgQAsTIN0UBJKt6ZZzggAF5PVkECAFi5L8iAJJHvTJO0DAgjyeLACFAjPxXBEDKUK/UwvJ4sggQAmRDAFKGeqUWlgfgBAgBMnSAlKleYXF5PFkECAEydICUqV5hcXk8WQQIATJ0gJSpXmFxeTxZBAgBkhsgUKGQwn51eVkG835I3A9MliXIZ5yYwwCoWVHCQaydIyPGNBQChAAxstkgIzftVJ/xphUZYEqJJ0AIECOrpgGkbNvCOHHLAYOO9RIgBIiRjdIA4tC/z/iMLAOy5mfpnpXm6SJACBAjb+oA4nps1vQQdebc1lbB+CPyEJXt4Smb5+s6+RIgBIiJd7Qp41nPdaQ9DK5YgMO2kINqC+fQptm4Tl1xCAKEADEyjk6CFG1/4EjtysqKVSkgSA8UZMBv1xOGaYtNcwUTIARIJoBkOTo7iDlV7StIBBNF7QUnBh5w47RgotP92YLN9Orq8/ciWrA5tUgesDVRhjdJBHicZk+92auTVUQai7JndFUZCRBKECOqB8VB8kbJYUsAIFEjHYY3nABxwtlyGOYASZTyOAzwXKwP8RAdESAESC6A4GIY7FfkacHrkqltvFBgyp2S2fdKwxyMqavgHr0nxuLrDjClVXvHcyHRYOTHS5HqFoj77Jb3RL2tQUUdCBACJDdAjDeo8QAChAAxsm+e8xTGm1d8AAFCgBhZlABhl9sok7CJZwwyBAgBQoAMkCMECAFCgBAgdPMale21AVSxqGL1doBGOo1043eDKhZVLKpYVLGoYhk/lVSxtFtECUIJQglCCUIJQglydweKyOa13M9aD6ORTiPdyMBUsahiUcWiikUVy/ippJFOIz22A1SxqGIZvxtUsahiUcWiikUVy/ippIpFFYsqlhEmzMWKbRFVLKpYVLGoYlHFMsoOqlhUsahiGWFCFYsqVm8H6Oalm9f4xaANQhuENghtENogxk8lbRDtFqG4WryFmeVe1n6YUxV71uat/fvuW0BrfDq0WVGeLrE296/ymA8/+kDADrGiYPP2ztLcTauxNR7khZGO9yMB8r38tc30rnwGiEvt4c7FeS94x4tFugBkUA8/E7jq/ndTtfnI+m5KgGyv+3pt5u8TQL6WG9I2bUqePuNp97YpMG2al+7v8crvWe4Rveall49aFcOW13QkQPbkfV4drvcHIPumT8siR0dsXoquPZnNddExaFMAoxfdqWyqwLveX42HSgjXdBFgeXrmKctpBIudi2cnLQfXephHAJk6KYLghM3bevWV17rtArIS+qmfeefMUIERnxvaugEsWcmp70goznQuzR/N+qw6XecPQNpPTojwngWbl4M+Hs8+85zN0MQYSIu0pjiZbmh5UbSXoeUlfcMWFr+QPROttkeWGwwPd5bOzWV5Tt2u8QggM9tEeAueLCPlsUOcYgnGmbgNyJMF4GB/SIDc3tVZ+vya2+zqOdobgOD1SFfvv+WvUZtXhUabWfR6F1epzTxcxmR1UTupV0Jckwb6Lpd51XmsXwBxMNSzfo0dXKWF8w3sJthPruQm9fwx0LGPfgHEwQ7JqmZBj4c+XwahryGA7UpOoPbI/vAQIPZ2CDYnizcLMQ/o8xtNg9o7D5oLGoECINbkkf3hHUDW7ZCP5e8ZG4bIGlV3OldhMxGLMdH+6xbDe0OcpIfwS73yEyAOahY2KGt8ASBBq+ZhBgkxP0gOgAPqlSshiAmngjUFdyY7S58tWo9vwECvbBD1vly8WVltEfWsYUbSd46MSE/bjtR+6ib+PHb8mIAHy5JuimCzdO82P4M3uh9+AmSffVQdm4WgIYKHTSJnNTAM3+hcOneySXtgsxY/AdLuGuvfyQ0atdkkSJHZU29miovY3H+jx8CRcOz46y7qn5fSw0sbpKdmtadmRBjAYLeikZGdEiSzVmOrPAg2EewOeK+syVPp4TVAsHhpi/xH/vq1LaNkDcTZ3n8jxjmdGlyb0H+l7fEb32wP9S68VLHU4veMT/09FMHvXRgza4Td5RnDGusWMV+fRSguyMxddxfZsBaxwff1GiAtR5evejdZXb8b/G77HpfZ7RyEh2Tm7nyZcy/z2QSIZQp8/CXVSZJAciD9JVNMJgj2d5bOLpXJpGU+23OAuKWexF9U1tynjXrhAASAAYBkJs9SS+L75DVA1g11q3JAaQxWVcMd4IBBjkBlDvKmOEPaHhEgDmdE0jYRLuDnnnlW4HcVCNFxHPktoFiEN8UZCJCUHZCuXqtqJzaMD5Xr4IHHSgsoKpUKBnkWe+O+++4TP//8c2Sp/iUnUsWK7UArdojq/vt/JX766X82eEgds9G2SV5gqIU8/NuHxbf/+vbuujwqzkAJkiZBYnlZKjsWmbh5CPeBp2uYOVwAxvkLX3WN8CwSI7o+gBoqWZ/N4tnhKN37pg2iiYXgPLpivDwgUdfirPiIzLx99JF9udUvxcRQo1ZXb+QGBuaoJF6icIOH6e1UseIqVvuJURFuQjGHHqlAYKbIswFR8HoBLDDocSBrh0xX1xWHgEQAAG7IrzoIhvflK1dc0tON2I6fJUkUjvPcxYsNpARZy+ztKwcUDQKCMVHnKq8KY+RWOQBA2bLlgcIkw6BnAhxI41fF5rSVTQgQAgRMFK/8Hi+fA7UGblOHw0U2eChtDKTXEVmJMSq5NOdDvCrvQyN9ADtKgOBsSEsNSUttL7PmVVFogooHFRISJEoadXJJ1r/aX9Rz63of71WsrgSJuXoHHbMts6xPHibDmhCjgUEeBwfuqwH/nATI4TzPbMK1BEgXIMkjuIMqK0LlQo6TdTemEjkFYNgpVarpqemBkf6EB4sxkO5bI0AAEI2r16YmlmpxUFWgQJ0yAQNMAAfECy8+3w9jxkAIEMURrfahtghDpJz0yCWdHUCZl0cmnI6xDlGq2AJDTUHvwfKvxI/ulVCCdCVI0tWbpRA0otAXZFS7DKAoVeqAtDFc+4RoK5zQxUsJEv1ixF29edLYobKA6fAzbNcw5jkmfx7auzdzNjHSauJnRnxp0mkS5JQg6zsUd/XmLRinNh5ggURB16mry8u5AIM5oVDc7rGxLhggKXQeKdNLj/9d48HyPs1d7REBchcgibT3rD1CTAwKL9h1abesrKx0hyKlRBnL+A2mV4wPQKCCogJHEYCIz0/TPIcxkPVNIkAUQDS9Q2w8WSYwVP3vWg8WXby910aA9ACSjIW4eLKqDoS0+WnbHwTiaGdp3qGqdV1Xb543AaIAoomFZPFkmbe8WiO0GctMc6cEibNpS5P27gNAtJUW6eIlQJIAScZCivJkVUtm9M9Gm4BJgBAgOqaNx0Iw5r133y/ElVpVkGg8WExzj7ws2iCRzdBVOGmyJyulnyJjIASI/nseT3vHqCZ7slIaeDLNnQBJA0jS1Ts5MdntAdhE0nqwGAPpe9VUsaIqlmeuXr0HKzwsq7nPNfGDkGVNBEgfQJJp7032ZGlbQDMGQgmS9iXRpb032ZOFQ1KJai108RIgg0StztWL3oRVKUydRU3QXaM9JCUHMs29f7eoYsW4J5723lRPFg53IUgYI8ZAYhtCgCQBkkh7b6InK6VqJNPcCZDBSoouFtLEnKyUGl+MgRAgJoAkYyFN9GRpUkyEYAwkwRxUseIqVkrn22GdLizK6Ha5T0qKiSwCxRhIfB8JkARA9I098xRxcGHejRibWkKVLl5KEBsGbI0fWpD6xkR8LJrhoCJ6XcnQ9ZYGuubFUoJoNkV3eEoNW6txe7AbFxlGAYVhgA/AQNxjrenOWr+RGN0UQTDpcz/0tH0nQFJ2ptWePiKN1tPDYNjK3TMM3+hcOneycvOqwIQIkAEvocgOuBV412lT6Ihg8/7O0tzNCs+xtKkRIIat18VFSntbxT94ToJDVjAhOKhi5WCuVnuqJcJAGu5iNMdtqnSptDnuyLT2zxarNKkqzoUSxOGtrNklwbj0cKEbVZ3AAvUJP9dkw4svhdg8R6lh9+L/DwIIXoz/a7aGAAAAAElFTkSuQmCC;" vertex="1" parent="1">
          <mxGeometry x="386.01" y="412.5" width="55" height="55" as="geometry" />
        </mxCell>
        <mxCell id="x7lhCnKFzgiBbyIF77EN-6" value="" style="shape=image;verticalLabelPosition=bottom;labelBackgroundColor=default;verticalAlign=top;aspect=fixed;imageAspect=0;image=data:image/png,iVBORw0KGgoAAAANSUhEUgAAAMgAAADICAYAAACtWK6eAAAZk0lEQVR4Xu1di7UjSQ1dMoAMTAaQgYkAiAATwQ4R4I2AIQJMBEAEmAjYDHAGuxmA7mz30NPb7da9UlX/qs7x8Xvzqqskla5+JXt+8lXdce+269/r7t5227sEPhgDP7VXNf35SUWJXWyvf3cMfmvvv7XXq+L+bav9SuAXRvof7fWbjoVf2jt0qPioCZB/GjfXEUd/sN8/FueybbBnCdyM+D91hrXnA4b15zWYqgUQuEYwOTWaN6lx0vvbA6EUdAYAmRpVjGsNgIDR/4wswJjh7+0fwPBjf+fYKC4ggaut+Rd7Xd6sDZ1BqPUqsP/nJWsABIzOWYExbwDI70sy3NbetARgTJFrIOLwjL/bJOSyxUZpgMASIPdgBiwDQALm2ziPBKArS15jShpFE/bSAJlKzD1H/rJJVZIwDzFtThUJqLqCHBYgKTJKAgQlub+JVP/KnnuKz7bH9imBi5GNXFUZCLOKRBwlAaJaBJR9kbC3cT4JMPnqUDrFIo5SAFG9B/IPhFZ4b+N8EkCSjstkeBN2IG99sA8tzS8FENV7VKltLwml/X1VCUSM68+yKS8BEJXBpzGH3KONJgHVwKZ7kRIAQWLe98wwR90Sc0Zax56LEEtJ2NMrWtkAQVMZYkh2FL/wYQlq81eXgJqwI4d9ZVGfDRD0znhvQYc8ZHgPWJ00wWQJuK0jS0D1Ig/bMa0bIxMgnp6rKWlleI+rLYzQDsJpJWJZJ8MP9q0if04yVqt7kUyAvOvYfSf5DO8xTOoQh8KC4L2NehJAeA2FxnuG0QPlqhdJq4ZmAkSpPDxNCNHK1Rwwv7G17/X047Q7wWvc7IUmQ/zcj6zbbaXog3u0lJJvFkDU5DwqxKWwDl6kfXKxHHZx7sNP+g13etkvGf10qm6lJOtZAIGlhqCYkVGS8xYF0lwuw+DB58JrjD/pN2Y5S+4o+V5IeT5sfjhZzwKIwkA0BLqaAOB+h279nQyfnTdpbSykpo2mQ97vPuk3nA5ZZ3yoCWBEfsOMlDArAyBruUAl54HQEHIBLG3wEoBRYj+zkWHJAcrveHI/nTUKBvLIAMjddmfDq2iV4ze2p9JKD4CgKNAqXLzKqEqKnTI+1KSUfMPgzAAIbs7hRZgRRbbiPUBfNKxjeDziXEVJIYewotoailEMh1lRgChWBUSjwqDmAmpI9+osmbrvERWe5QnnrbSjZ+UiSq4bqmZFAaKgOhpeKSEdFCHjQpJVqCPOV84ccsioaHmrlkO5h/aNAkS5xImEV6oFi4LyiIoe4UkJq8Phjhhmhc4+CpDaLk+1Xqz3uNhhICQ700Do6i1eqOeQkayjmgVD6R0hYEYAouQCOIDIN1AoyTlrQfrDD7lm7+ltZN7N6ED4gos1yMszFOP46PbwrD83R9EBGZgRgECo7OXNR3tG7bZVAAkhM94DlgkH0FflnvYzQsKjJvbgd3jpx1hb5fwzkvW70cxeK8jGLgIQpeQXyT8UwbDeY2oPHCoEDOt3pHHtDNxlxBRTCle8iKysHZ0ANXtpyOrBZ5FEAKIk6OiwVK2xchgMIKEo/X/PMAUEACTc27MBhEHBYIE/vKHFWxpVqkqysg7orZaHRADCKmwk/4Dysp9RBhCZ+xaPR8Sae25VmfMaY6x4jYFizZkwbg7DinGWdF16yKhW8oFI/qFUTRhLhYMGAPHuGRFePOtnz+m9xo3g0etFWEMJ3uSkuRPMvfOCjJykPVWAQNBsgo7wBJZJGYpAmPBKWR8ecQ+fNYEx6z/px8jemysouuBde45exWBKe6oAQfw69x/izDHFVJPGa7AXU6wbZ9cHfRkVGUZh1bmsd+z38cpQCbMY7z7Ft7InU3z4vKcKEE+8PmbM67LHzynCYA5AsUagURK4quXB5xQrjy29Xp8Ns7zge8f2f0mZMDoRBgibJL1sRwBEGYoCM8rL8gIewA9iWhz0XobiJb1KpVSzVIPZy5sFpVQkUj0IS9zTuEKIpYy7PcReDDHhHMsLY1kVfks9c7OF2bzRa+kVIyblBAPhsDfqXl6+kH8tgDxsV/UOgbXwjCCUahzWZ8rHpRReWVcxBp7qT+kweIpXxWvR+k4/YJRe7MXeSUSsBXuojCtVrOreSrxD5VKUynt27OVdJKoAT4rXosM6BSCK1fUme1OWggUI462UYgMTvilWvuQzJS09G/K8Ok+s8qsAhD47BSBX4wjCYAZzJzFel61WMBaeBR8TvjHyqTm3FM+sd4rKsooebh0gSjjHgJEFn7eqwyo8LDs8M174GWEi9ioxFK/p6aG7G7FMMSUKkCqRjAKQKq6t0wxFCJ6kEssr4GPKx17l/tApFoAxHt7437sX5t3sxVazPDJV9MIDvDnelPOjQ30FIKUEPCWIq/0jG855EzEFfIx38iitx+o+bCG1ApglU0/srpyVB3hzclTyKdrg1AKIV2nHwlDA6N1LOVCPoniAgTmMxc0EZinLq8jzkABBSMD2YXmVNgMgXrddEnxLIIH1g2eEF/OMaLw+3KOU5VU8ctTgsDkkHSIrHkQBiFdpx8qi7OXlSVlbBXoGX/ThvkFeCcUq5ZneGRD27oWWoVeZhkQqiqUCxBOjjwXo5akmH2MLvuaXr4GWowCkBB9f6JNXmYYP1QxNlL28YGRygJ7/SMzcr6GAvn/2YT9EE/ZSll4JsSK5ValQMQyQmoql7LVlgOBQcVE3VdL15CKYEw3zSimysm4kBykF9FUAogriatSyZV6vla99oBB8xHtkeRFFph5Lr6wbAbtyflXuQRSrrgJEsRJegFRx0QNzBF7efWuK14NEvYiSe3lkquhFbYB4gB72IIqloAnrqFSU2LuXsvbfjS6srwylxWNunwgd7McHvIBUgKfkwL1MquihQmAV1zbQDLZSwdyWlmrcGyu2cphLIPRY9ak1SvHMGoCXEQcPog7FY9GRjAIQxfIySjsWGFvrZqwr24HqtaZjHthWcI/SfGuTABJmKMbNK0/WMyn0D3lVPBYd0ikAAZEllXZ84OxnqZ+2ACyFZ9xsEtu497BnmFKrYuk8tGOON5zs17vbD0zHLZ7zXq6xnok5pyl5KMaN1nf6gY7SkkobBcj3tgBKvZ6heENmfdBQwnv0vL3sByZMYZXYC0JFjqyhGZ8n67FYWX3aTwUIe+isUg2FoVgKxpWy3hC0ecuFJb1HL6OStODcIEu8vxsKn1665/ZlwS6FdCpAFKX1XuCNBaIIn8l52OQS9HmsEawq05Do8XhTc7zGhzVq2Mubf9xtLhu6MUZsim+2eCN5LBUgikDUqovivr0HC8FfO0VmFXTJAipJJEtDP3/JIKi0eHMcFnxeUM/JQyk2fLTFICdqqAApbdXHTLDulD0Adn3Qhz0AeniT8QColYZE6vAGk9+FQqBFaW/xhlelDdiUTBSjtmTQJmWvAkQRircaMkWoEtIxLlyxsIhpYZGeEwTf7d/YkEMFR//cnIW82ARYeLwzw3teirH0rj1Hr3JeUgSjAgSEs8ktFMlbfh0LRjmEhy3iLceygMfaAMdU8qpabEZ5p+a+82iYzxoZr4Fhq0mgxRu6zclE2VPKgSMAYeNOMCsRac+xCoy92DDLk6xjTYAOOc7cuNsfanuPnpYlo3C1ieDzsoBGbw6HdRC+sUPVg34f1jjD27OXqp/2igCEtUjYDx7kyUqzm6/kCUzcuQRC0I31Xm/oh8KoDYlY/1/d2r9zKPEcGUuWH3zi7G4zC8AI4JygVEvjbhNYYyAra0dMtQQd+0UAooQ9kdhTASSUjgnrpg4cCgO6EeMvDY8XmloDdCLsGIZsiofG2l7rD4BMdRHM5TJTdLMXxlgjogN4Xsk/GEP5BZ8RgCxZ3CmBsmHPcI2L/aK48yWLOtwDPA2rT1DcJa/RP3+1H6DU7IBMQOM4nxnTwqzrTUixB0ACY4cxR8vU3oqBXMqTPDwq+Yec80QAAmaUsCcSfyr7PTol9wgfc3DwUBpYOjw7Vty5dVSL/86i3jpavLT389gwprfKS/cpQzoUfr3ebY5fAJotWUeMcijEAhNK2CO7O9tPVRjGi4AvxLmeGLw/SMWa4tmXvWDt34FQMQpYm7Wal44eDxhVflmaxrQo+4ZAGfUgCsGwyt7y61hASliHNSJ7ehRGsaZY12OxVaMA8MEwlBgKvxn01DbIYQ+iKCwT504driIkrOONy1mFUoyE13v0tKheJOKt5+Sg8htNzpXwCjyw0cMXfEc9CBZTDi9ycJduT1aRMyzYlEeDNUVIxg5GBqpShuLvCYbUwkFGcq7IgM3FfsRyBkAUix4lXAElmPeENIyi98kt8wzmPu3FlJ/xjBLW4DkGiEt83G0Ce++BNUN5QEeUUr362J35El+zf88AyMVWL11+HTNws3+YquEvCSLDkvV7qNYUzwMcAAkzVDlneRE1xFH5HcpG3VuR8xdnkgEQLKhY9Kg1Vy6poCywqLBo0XG3BWpbU8WKgs9o/N/LSvGYGd5D2fdlRIeLFFkAURiIWjbE/QCJd8Biey/9ltZULVrUmipFEeyZ7TkB1OuSkLp9YcURUkeGEl6mGIUsgKgHF42PPa0dUA720m/pMNfwHj1NHp6n6H90BmKJN+/fPUYxQ0mV5Bw8pFQtswACghSUv+y5iBtcAiYsF0AYtWBDpbnYL0pDIoCaYU2XeH6n4KGS58TC8OIALN7HA2e7dAnqAaOiV9Ei0Ge6MgFy64TlYXo4J3q7OrcvKhiwYFDMzKFU7bB/uKIyYOJuP9fOf97JcIqeaHSA/VTvkeG5PvGbCRDVssHSRLwI+Bgm7LAeEFBGIj5WClhKWDTwygyAFDxmgRX7qx/pTQk9JpiHbJCbXDrZw/BFh+I9MvOtVIBAGKp1jXqRa6e4D3uf+6Rf9LDw/NpVpCEPN/tFKXWnhR8zAgVNf7XXMyjw/kzZZaAD8F4pI9ODgCDVi2QcGgQaPZR3QlUP7GWLZsTiU7Qp5XWsEzVIKcq3sIhqjFI9ZDZAwLNaZUllrMAJKu4eZETve96xcuvkzbIL0EbDWnZPZr5qjBBWZ4R2n2ktAZCLra7crG/50NRksaT36A9R9SIZSTSj9Mxc1RihSvhkNlqaWwIg2FNlsKS1XZLF3N8RNtZoSFTpU8GLZBYfXtva8NyvTNEMYAAgqaMUQFQXmVqBSJLUpg5shiel7QZLbc2LXIwm5Y6pGC+lABLxIkUsgQiWSDk13d2/4QElVqbtpl9qa15EzV+L6UxJgMAaKLkIDm8rVZa70bKlC7l3OFerPmmXaqIR6h9TQ0U8X8wYlQQICFctwhYsG7wHAM5eChY9sDdKqJbYtxDWRvK89MrVUMalAaIeGmhcO2Hfk/foz1Q1SA9bIO1yTfAkm/Qe4KM0QBQvAouGw4JlWGtcbGMlWQTtcPe4+FxjRAwS7kVeaxDd7Xm1dwAcsveO4sCuARAm0X2aZMbfMOgVVuY8tWXmoxEBz7fmuNvme8mbxnKCrrz7WtTh/CqhYQ2AgKklFwpmkSxCwdYesGCq98hsSFTlwBik8R5b6Wa4GWFLfWZVQvBaAMFBzFVZ4DUQUr1UjUh+To3jt1INgjg8CjYlNoSGAMkWBoCOs4BxHY+iiflws5oAGcfHvdd4GEH4eQvjakTg1pwdAHephkSWln6+2oKylRJ7z8cH+wFhVz+q5nk1AQIG+1ALlgpeY61kdk7pjtQiczMml8KUKTkA7FtrZPxFxwveq3rq2gDBgeDg4CK34jV6JVnKk+ZAtUXvEfUiW2tB6fmprjtrAEQNGUo/d5R+pqGcVNDDeG2xkbG0Dvxo/QaQH0SihiNPeza9gzRZC44I/GQRzS/XAPJDK4n6+e5iPUCJGoC4/QiNjIki8S/VAPLVV3cT114v1rwnvfdGRi+f6fPODhB4jz01JKoKcOn4ZJ+vclvNElVz/tkBcgbv0euTegH6sAXWbGSsiYcf7XVmgMCqKi0lEOKre616eMLmV+EZPLJ2I6NIdvyxMwNEbUiMS31/K1Rr7diaaM4KkIj32NoZ1qJnK42Mtfj9tM9ZAaLG41UPZ2ObPY2erd/5pIvsjABBHK40JKYLf4cLbq2RsbgIzwgQtSGx+GHsYAMUJ7bWyFhUbGcDiNqbVPQQdrb4VhsZi4jxbABp3iOuRqdqZDwTQG6mG8rnI+IqdbwVTuNFzgKQSEPi8dQ7ztFpvMhZAHI3nVAaEuOqdNwVqn6yby0xngEgkYbEtc5lD/ueopHxDABRvQdKmnitOQBufJ6j5ACPUHZln4c9d+hGxqMD5GIHqDQkVv3mjAntBzAQEt7shZ9LjOG3ymD978RNDt3IeHSAqA2JH01Z1vqGxKvtzX4FJ6vbz87yw3v0Q22/OXQj45EBEvEeaMwbKg+rgMp8AAOAVkId734ABoA/9XVL8FSqFzlsI+ORAaJaxNrVmdrh1LuvW7obSJRqH4B3yEbGowIE1lhpSITyIKau8Z1dWwJG74Ei90WHbGQ8KkDUlpJa3mPtcOpdSHazPyodBwhJD9fIeESAqA2JOODS36+L/AIhDGgsNZBfAOhIntWhfq/v4VpQjggQ1XuUPNwthlPvwKMamcO1oBwNIGp4UCrJBDCgbKhOlbzPgLdAdSozd2rfyGgCPRJAoIDwHkqZFBUYgCRzXDtgKPR46QDNc2Vb7xpz80D36b+R8UgAuduBKiXK7IuuveQZHgCd/hsZjwIQeI+1vyFxb3mGByCXTq6eucM5CPXWuGxl6VycfxSArO09+jwDClVqPGxhVKdepTaYWVe9cAW9u29kPAJAoJRrNSRebe8120NqYCXSgrL7RsYjAGSNhsQ+nPpQUEMRpsBjfCy4h3dp1Ytk53deetPm7R0gEe+hxMhHzDM8yhTxIrtuZNw7QFTLprSUIJxaow3do8A15qh53tOI220j454BAoWt0ZCIfVA+xnupASUCaPG+1XHKRsY9A0RtKfF6j7OGU+8Aeuu8KAvilz2wy0bGvQJE7RXCQS01JAIYSL6/tlfJ9pA/2/pIwDPbQ1jFVearjYy7bIffK0BU77HUkIgw6uhlWwUUw2dU4wRDsLv/WnqPAFEPCPH9XLJ4pPaQKAA8z5+mkXFvAMluSGx5hgcOP55zmkbGvQEEuQFCIHaML6wAjL49pGSegX2z29BZ3kvNP0Uj454AAkXOaEhseUYOZC7debCr7aqRcU8AudtJRNrZERagMnVjT5SY/63NRXXqQTyz56nqRS3ks4tGxr0ABNZKbUhEefHXHTBKhlO4X8HB761sGwFopAVlF42MewGI2pD46k4fACs1+jyj36vUPltd99BeZA8AUb1HaYV62galPu5amvbM9Q/tRfYAENVCZSrBcC2EUFtpQy/FI7vu3R6I5IfsftXmbx0gV5OE0pBYQoA9MM6WZ3hkGWlkxOUtvPEmx9YBoraUZAsbB4iqyyt74QOtdzNeDveNjFsGiNpSkqlzAMbW29Az+Y2udbhGxi0DZE3v0cIpDSqqUdtsI+NWAaIKWjvW/z+Fg9prG3qU96znD9XIuEWARBoSI4eMcKqVbSMS/OHZq72UwsomvcgWAaI2JKpHi/YQ5Bm48GsjRwKHaWTcGkAiDYnq0QIgZ2oPUeXEPIdzRO8bOzbXyLg1gNxNosqFE3sQbf52JfAw0jbTyLglgKzhPbarJuembDONjFsCiNqQeG5VOib3m/EiWwHIxc5ZaWc/pno0riCBTXiRrQBkaw2JTUXXlwCqivgsz6pjCwC5mgSUuvmqgmubV5HA6t/ruwWArNlSUuWU2yayBFCCB0hWG2sDZK2WktUE3jamJbDqNzKuDZDmPWh9Od0Dry5hX4XxNQHSvMcqR77LTXFx+FiD8rUAslZD4hoybnvGJbBaI+NaAFEbEuFu8WpjvxK4GOl4sQMNpXf2oej8NQBy2M8vRw/jJM+jiRGXwuxYpZFxDYDACigNiU97Dh/wb2P/ElDb4R/GetVGxtoAiTQkAhwASRv7l4DqRcB51RaU2gBp3mP/yp3FwS68SE2AXLrYE16EHc17sBLb/vxdeJGaAFEbElvusX1lVylUvUi1RsZaALmaBNWGxOY9VPXb/nMRL1KlkbEWQNSWkuY9tq/kUQpVL1KlkbEGQCItJc17RNVv+89HvEjxRsYaAGneY/tKujaFqhd5dWXfYvSXBkjzHsWO7lALR7xI0UbGkgCJNCS23ONQ+u9iRvUiRRsZSwJEbUiENFvu4dKpQ02KeBF8ZezHEtIoBZBIQ2LzHiVOeh9rRrwIWlDSvyGzFEDuRqzSkNi8xz4UuRSVES8CDwJPkjpKACTSkNi8R+rx7nKxiBfB5SEqW2mjBECa90g7nlMuFPEiD5NYajt8NkAuRqD6DYnNe5wSD5NMq14Ei6W2w2cDRG1IbLlHA8dQAhEvktrImAmQq3GoNiQ279EAMpZAxIukNTJmAkRtKWneo4FjSgIRL5LWyJgFkEhLSfMeDSBzEoh4kZRGxiyARLxHCiNNxw4pgYgXeXUJe0gwGQBp3iN0BO3hBQlEvEi4kTEKkEhDIuTSvEfDx5IEIl4k3MgYBUikIbHlHkuq0f7eS2A1LxIBSKQhsXmPpvyMBFbzIhGA3I1DtSGxeQ9GPdpcSCDiRb6x56Gv9FABEmlIRFyIz3ugVt1Gk4BXAtC577yTR/Ogc1IjowoQ1XuAUFQW0A7QRpMAKwGEWrhSAFjY8eh0j3pOAcjFdmAaEgGKl73+YS8QiZ/baBKISADFoa/tBV1kBt3I+D80Ai0jh1o0EgAAAABJRU5ErkJggg==;imageBackground=default;" vertex="1" parent="1">
          <mxGeometry x="213.75" y="230" width="76.25" height="76.25" as="geometry" />
        </mxCell>
        <mxCell id="x7lhCnKFzgiBbyIF77EN-8" value="&lt;div style=&quot;font-size: 17px;&quot;&gt;&lt;font style=&quot;font-size: 17px;&quot;&gt;任务传输&lt;/font&gt;&lt;/div&gt;" style="text;html=1;strokeColor=none;fillColor=none;align=center;verticalAlign=middle;whiteSpace=wrap;rounded=0;" vertex="1" parent="1">
          <mxGeometry x="290" y="350" width="70" height="50" as="geometry" />
        </mxCell>
        <mxCell id="x7lhCnKFzgiBbyIF77EN-27" value="" style="shape=image;verticalLabelPosition=bottom;labelBackgroundColor=default;verticalAlign=top;aspect=fixed;imageAspect=0;image=data:image/png,iVBORw0KGgoAAAANSUhEUgAAAMgAAADICAYAAACtWK6eAAAgAElEQVR4Xu1da7BU1ZVeDRd5KAgI+EK5aFQMGBFFic+LmcQ45iEzicnMmIqaVKrAyShVM5X8MFGcmapk/IGWJVb5Q5mK+ZOUGbRiSk2VXmfiAzXxClzlIXB5ycMAl4e8Lz3f192b3ndzus8+p7tPn75nraquhtt7n7P32vvb67HXXjsnSsoB5UBFDuSUN8oB5UBlDihAdHYoB6pwQAGi00M5oADROaAciMcBlSDx+Ka1MsIBBUhGBlq7GY8DCpB4fNNaGeGAAiQjA63djMcBBUg8vmmtjHBAAZKRgdZuxuOAAiQe37RWRjigAMnIQGs343FAARKPb1orIxxQgGRkoLWb8TigAInHN62VEQ4oQDIy0NrNeBxQgMTjm9bKCAcUIBkZaO1mPA4oQOLxTWtlhAMKkIwMtHYzHgcUIPH4prUywgEFSEYGWrsZjwMKkHh801oZ4YACJCMDrd2MxwEFSDy+aa2McEABkpGB1m7G44ACJB7ftFZGOKAAychAazfjcUABEo9vWisjHFCAZGSgtZvxOKAAicc3rZURDihAMjLQ2s14HFCAxOOb1soIBxQgGRlo7WY8DihA4vFNa2WEAwqQjAy0djMeBxQg8fimtTLCAQVIRgZauxmPAwqQeHzTWhnhgAIkIwOt3YzHAQVIPL5prYxwQAGSkYHWbsbjgAIkHt+0VkY40BIAmb4wP/pYm0zPDZZv5kU68Bmd5vEBU3vRvsInn5Pe3HHZgDb34LtnxY9znWluu7atPwdSD5Bpj+c78oPlGTS0faAMHkCzWI7L69335hYPlD4N1H6kFiCUGn1D5UGsvPcPVOaX+rUEfXx9yGFZ3DU/R6mjlCIOpBIgBZVqqPwP+NRheHXhWPwHMmTGOSIXnyFy2ikp4qLTlK37RNbsLP5xdel7234R/v0vWyu3m5KlT2TByrm5nvT2LlstSyVApj2Rf0hy8iCH4lQA4QczRL5+SX9Q9GHZPXxcZP8xEf477XTKIBF+9h8ReW2tyBsbKoMFg/Lo8nm5+WnvUxbalzqATH0iPz2Xk9fA/IIh/ssvi9wIyWFoHwCx+VARHK0AjGqTiIBZvgWfT0Q6ARqXFCjNh2DqADJtUZ7g6CBr7pgmMv+LRSYRDJ8cFtmJFbjVgRE07Ls+E/lDt8jbJytXvfm8zFeDvjlgSRVApjyZb2/Ly3qjWi35h7JatfYAfKZHm8OkJN+6GWZ65+qTgaLSJMlRKL8rVQCBenUX1Ktn2LwrzhZZ9LViQ3dAcmyCWpUlWvOpyLPvQGJCsljUuWJebnaW+NDsvqYLIIvy96NBC8mU70C9uh/q1RHYGh/CAzQQ1SqfwX+uC0Y9JIpFXVC57obKhV+UGs2BVAHkskX5hWbf44GbRG67OJvSwx30ZTDkn3qj3197pU/m6K58o+EhcKamiIIAkhXbI2wYaJs8BvfFQcsOw+DNgTt4SVhd/T0+B1IPkOXYXKOapVQEB0FCsJSIHq7Zqm41bnakHiB/3tO4zrfqkwkSGvEGJG2HZbKGqTRmNAcsQLjavg2H8RastvQE2apJFFYOHyIyvBTWMgL/HnuqyBn48Pui8VGeVL+y7MsvXunn4VLvVv3Y2+9JAw4gnDyFDTeAIy4oovD6C+cWgTJrMoAEACVF3Fj8+Yv93rYELuA5Sb0/K+8ZUACh2vHc+/109ETHkUC5aIIIQTMxgRMr7C/VLUMl9+/iRDs9wF82YABCV+ivsLFmSw17wl6GaODJI8qjuQLG/x7EdRk6b5jI+cP7j/Z7sH96sUFJo5jPHYTPiDaEvOzFB/XfRQxVJSJAZsNNfU17Y2cQ90i4V2LoWE4mazRw/Xg+IADienemjBP50VWInh3Vn1HXjBEZhgBB0iF4xpbuLv/eBk5ciUltfucvf0XcVzeAYIhlrgPQbHoVqlzh0yOyDzv+LhEod17dWInCPRIuECSGzHfPzd1dvymS7ScNCIDYu80Ex9PfEBk5FGdcEb+14WB5gEfDRrjcAs0q7NBvsyb1OBjjU0f2nxAfQFrYMWCTIGXaLUnkgmUlzn88v7IoYWyi2vWt6UXjvt7EBeLfeHqmRCpF6sfhlgeIvctMUDz2VZGZOFRFOoZt+T9DPaK0MEQAEAjm9zd29Wem/Tt/cSUN/2ZLokpD8ewyhOr33/0uFKXa9fcASr2JcVtWJLAa7HVicMsDhB4rfkhzZ4rMg2plEyUEJYUhV01ypQxVLALAJh9JEwUo5+P5/4i21tOQd6UIQlFmayhK7ShpeYA8CFeniXil9LgZ7laXuNnIk4eGXDWJtogtZS6EGjQRRrshSqIwSRM2FA+8CtVrVbkUT0r+8Lr67qXYiwWzqHTPywVwI6yl+rvNgZYHyD//ptydN+8p2h4u0YagLWGTrSYFGeOuwe4jacKm1sq/itzzQn9jnuoW1a56kLuBqG7f2rna0gCx1Qoa57/9dmWG0BtFIBhyDXJXyri/B9kzrqTxGQ56uggSgsVQPe2SpT1FdzdJPVo+I1K9TGYAEmRs2wY5VTA37uvK03GiEfsehnwkje+Q0ICnIW/oYmww/kuHb+3K5RxbpBe7645FVfs7svSEzACEg+oa265BHvY7nxEmaaJMHtfTNau9uGdSK9l2mbp8a+NmpgBCNYkGOb8N2WpSkDF+yWkiZ1l2jY+kiTIk3GS876Vyje8BILXuvtvGuuRlwYp7cw9FaZOWLXMgUwBht4PcvrZB7hrjdAvToOe3IdeeCXINR5lkrofrPpw6ryVSWNWsKNyvXjZzACE7XLeubZAHGeOUIJQkhnwkTdQhohShNCGNgAuY9kgt+ySqZkUdgeDymQSIa2yTNbZB7koZ93f+P0jSuK7hqEP07d+WvVvjsBfz0G1Rn1Aub4ffQKOcjz2RR+M/Lbs1MwkQDrcbY+WqSa4x7sZx+UiaqNOKLuBvASQmjqsWo91J9KChJ1EHo1Q+swAJcvvaBnnQ5qIbp+UjaaKOC0Po73m+XOthSJE4AY7OWRE9cRh1ILIOEPbfdeu6BrlrjAeFu7uShvsmVNdqIdseYRTwjxCSEpWcE4e6HxKVgQqQorvXjbGyDfKg3904riBJ47qGo44NVa1rny7X+ulXohvsbvAiEjuM0cQOUUeiBfJiVctqEiXUpBJrXGPbNchdKcPf3XB3H0kTdWjsnXa6fOn6jUo8I2JOWCpAonKvWD6zNojNLtfta6tJQcZ4kMFeTRLFGRrXYKeaRXUrCjHzicmhpTvqUThXLqsAAS+C3L62mhRkjLsGu4+kiTpEDI/nJiKJqYYWRHT72vmzENl7hSaYizoCKkFOcMw1tl2D3JUy7u9BYSyupIk6PK4tEtWj1e+sugIkKvvTpWLxXsKjw2RhLi93sWUmeXWjbRDDtaAYKx6aYqwWKUjKuAa7j6SJOkp2GErUsyM2QBiTxUNUUd/fqPK8EhtXe/ekPQNL01UsXrk2KCffx+ARGCeySSUNEE6EMDUpyBh3d8/DJE3UCWcHM0Z1+fYDSNQXJ1s+tTf9NhUgU4v3gfCyzpPSrDUDIEFuXVtNCtpcdA9W+UiaKHPPVbMeQe5E3wyOLQSQEyzBfHj0aE4eS4tkaRpA7JtsDXd4q5S54vmmdkS04rrnpFQs04Ygt69tkAdJGaYSIpAMuZKGf/fJhFIJOLaaFSUcnuEmVib4KLhseNlCMj6c8LSScPd7J4GShpt+EweIa2uQKwQGL+skIFxKGiBBbl3bIA+SMm4cl4+kiTIDa1GzorynWWUJZH4CLjDtwv7N7GZucCYOEFdy8Kq1H15ZvqyTV63xTsJ9fcWrnqvdDVKPjcKgSRFkbNsGOa+hXtv/7sBCOLx9sCpI0riuYd8JaatZVK+oZg1EqnCBaVPvQEkUINMez3fIYGEOwILNwTsICRBDvOKZl3X63kfYKICwPa7b11WTgoxx22D3kTRRJjlDT0xq06ju3ijvSUPZ1z9GAo6/9GtJb7PuQEkWINYd6DdMEvkvxBgZ6kGKUAIkCjUSIEExVrZBHmSMuwerguyZOJlQyBP7rEitJw6j8LhZZX/1rkjXJmgR5XxmXUhAcUXS7UkMICXpUUjWz6RpT+KKZ2NzxAEHn9NIgPD5Qca2rSYFSRk3E0qYpPEd8Fr2Q3zfkaZy65Dj+DVIkvc3lFvVjDRGyQFkUZ6q1e3s7h1Qq2iUk7hS86LOONRogISpSUHGuGuwB0maoCTZYf23gxf/dqoIPwOZjsAG/Q2uddgLzeJD65qJpGPKEgMI9jzW42XtHNTffVfkbCSRpq2xGsbuATAjDjUaIGxTkLFtq0lBv7sGu4+kCeu/7cmq5aRh2HvS9DsBQqCs3SHyaTlbfqKnIxMBCHfLcznB3U9Fb9Ufv18cBnqraJTHJRsgTDn6kxgHi8LeTRBvgIQ7aqUK4hUjvAJhCP7B3z92PFr8/SIrycNReOPWOVJyCDh/QYSrELZggjwJvZwUdUc9rI9p/f3Fj0R2g2994N+7pYQWbGuSUiQRgNj2xwzseTwB+4MTi1c8+3qsggbxpIzmaR3pOrcrKwD5I27P2l6SHBuQqnVr6cbjJJNQJAIQSJC7IEGe4TyhW5fu3VpsDzPfsgqQuAeo6ozThj/u9bXQMEp3wju2SGIerWQAUoy5WkiO/mBGcWMwrufKHhUChHf0ZY24WVivjPBp5p0NELaTHi3j9k3qhGTTAELPlX21WZoHStvWHA64AKE3i5KElNQBsKYBhPZHtTCS5gyJvjVNHHABYtshSd2gpQBJ04zQtvTjgAuQzbhPcnPpZuKkDHUFiE7K1HLABcg2eLF6ShcPKUBSO2zasKQ4oACxrmdOiun6ntbhgAJEAdI6s7UJLVWA1Bkgn2FfpNczZH7YYOSasq56bsL46ytDOKAAqSNANsJtvGF/tDn3BmJ9vouNy/aTUkZEe46WbgwHFCB1AshOBDx+WHL/RRmq99eJ7EGg4c+sg1tR6mvZxnJAAVIngMSRHhzaP30osgUHc356C7Kn13hlQWOnSjafrgCpE0DW7cVEd0LOw6ZUL8q/invKj+JI579CgqiaFcax5H9XgNQJIHtgmC+DJPAhAmI3wPEOghw/g2p2Kgz1/0T4fRsPcSiligMKkDoBhKP6a2TBWLY5fHyPACAECekU3AZ1O9IA3Dg5vJ6WSJ4DCpA6AoTD170dR2RxPNPKhFFxVBkyftV5anskP+3936gAqTNA/FmvJVuBAwoQBUgrzNOmtVEBogBp2uRrhRcrQBQgrTBPm9ZGBYgCpGmTrxVerABRgLTCPG1aGxUgCpCmTb5WeLECRAHSCvO0aW1UgCQAEObOMleR8cA//8/PAYSnjEAa1HMR6j4Cm4ZjkQb0ogn4jG/afGj4i9lvXlKzBpupuxBusxMf/o3f5MVYpFMdjm/yg3yZhQgD3/sQG9F4BUiDAGISyhEYZhJEGUCm9rwcn2vao9RKZ1kDiqXIbfsB+MH/RyEuGFw4mDCbi0iSZKce5Xs1aUON3Ofg/6Ebd91hMlSaCFwRx2ClHIrvPUhet6vK1QsTsYoyg2GrAoUXZD6HlOGVLvIkL/gZhs8h8K4aLzg05AXvak+KliwX2W+dEFWA1MB5AoNpSG1gcPDPwjmPc8aIjMdnCP4/KCBq9xhVLt5whVOJq7YCOKXsfaY5BMqdVyNuq0VOHhIQz75zMjDIj2kToT5BKpAXpCB+HEbW/V1IsbMdn1XbTh6UJO4nMfeD2G9XgMQACAHxK0wGqlOGOBGu+RxAMTZ4AlR6zXGofNsRNo+0loVQ+L9Ytxuxzo9wvQLVrzQTFwkuFvZCMXkcVMYLIDVxRUQU6sWCsQefNpzf/5OTA7nRCbSZtJo2iAIkyog5Zd2VksCY0Q6JAZ05aGX0fdVurJx7YbhyYqxFhLBJu8/6Sayevu20yxn10k7mTWBMPR9nXmqwHY5gAeKiwcXjKC6z+XNP+a2UqFw0GmGbuAY639pPguTl7u57c4vj8CpKnZbNrEhwPIYbD81KSQ/MtVNqmww243bi+ftL9slxSJR3cH7dUKNXzygDaMo+9UZ/KXrdRbUvFObZBMcWeL74PQRnaJZtLKuhXJR4qWg91U+qV7Q/+G2TfdMUJu6c5fNyS+LwKkqdlgQIQfGLV4oeKhJXyhlQqdpKenUUBlQrux1pLg+VjERXzaCxmpYrCKhS8UPihL3+EqzqsLnqSYdgl1CSkCidt8Jlvr6UBpTvfBinMuvlEl4GO3CZdS+h6cdq2EN0TxeoT2av+HGus559DHpWywHEtTmmnCVy2YW1qVSVmMwVcys8QcdKK9kpmAj/u7JcOg02CVWq53CXnwFHx+dFRo1qzLQxqqd5Oo8uGyO+XlL1MyxILyKZhis9+E77fpCkrmFLBCCXLcrfDi2Ft9yeuEAn7vUHnAxGzz4HHqrrcGNVLfZG2FSyV06WdSXJT5HwoZ7qRVh77N9dNfPL4EW9JYfbHluqku+fION6T0my1OoGJije6infKmW/e0DfMGUD5MZ2kV9+uXg/YdT7QejXp91hVstbcJ48qmcmygQ0ZW17hH+zjdV6rZxx2kVekCekmdj1vgAu3EYTpekWOC4MDcIS+ybuMzf08G3xjfb3NomshK0TRPbVB5KXBSvuzT3U6L7y+YlIkOkL86OPDZVCajdzy20cgNgTouNSkTNheyRB7qTgO+3LXGikJh2iQrc2DXMSbbCrYHc0UpLafKbaSe+WIVuqxr1glMAgQIKIOQaW4TfedktK6napxADCF7n3pPcCmlHuR7cnBHfC/wbSI6kJwfZz1TS2CP/Pd7+5pjhgZ8CNugArZ5JkLxZfQ/rUWly5UdtN7x6lqk32ghFF7aRaRYO8kuTgO/rdLAUH14p5uTlR2xy3fCIShI2DmrUQdsj9/DfVrLnXg8meiaZZx3Zj0hA984x4XWbKnx3Y52D6H+bEmuCZUTFoUnCn2XhykjTY7cWCTorL4dKNQ+TFZ/BO7cBkH4173ccA6HTj+pC7YLDe/60q1vSVIrzimcAwN9kGvZeOgI9RpiQ9eiE9ZmP/o+SW8GlpbWUSA8iUJ/PtbXk5cR38I7fCLTjSr/H0XP3898U9DxrmN3zBr55daj0kQDf899whd4kguRpxRgRMJbL3AkwZW7VgMB/DUZIghpG83VN8062XR/daMavkCkQJcKEwOcJMuznRr8Cu++Qzq/fE9Wix9HpMZHOv+SNY4yu5fY3UWAfjPshbZd58AODthnQxqhUm66PY+5ifBI/NOxIDCF849cn8M7m83MV/M6T6qTv8brq1V0xugE3EqulLnABL4QplDt4w4sS4uEooiat783kfYQAZu8XJwEmRBD34YnEPiO/8xqxob1wN22UFFgoXGO5TwhaNA1hoPoUHyyaG6Cwtbah+D4uFCfIkCCipNgGQlBb8dzVg8JkEB13IVo6zLlz9PLtrfs5R7qL1P2rpRAFiG+ts6KjhIp8/p2i4V6MPkDHxU4hj0o1Qr872VK84CZigmislaSRikW5uF5kCo/YcSK+VAM3z2Nf4pPRslrkezz+3wvNtF6dpby/08ZXY2CrUxWYlI2MbSfswMRm6TjoTkq8jgjQlOJjR3tBM8P4qLAhT0F/yYAs+zyJfsSFK1K/NDO5NEEBymE1vlTxalPQcWwIhDAzuG+jSJThOGOXwJPflZPbKubmeRvI26NmJAoQNmPZ4vkMGS8lZKzIYxu7nEDtF/bcSmQ2i0zDBb4ugxlCNoFpFIij+Hd4mfrvESfHLkkeIKgbdx0HqVpBagUVTlpaC6trxbEYPN5LseKSZAOQFZ/u9jarlywh956LBhWLeVSLfhOeL/7ZpJXbHf4bR4TeJsVzTJp38DqqcmwIifc1d5hxXup6jEKXFNsiHHQCqAQfq92LXfE4Su+apAAgbYe+LmEadjYk1Hqv6iICI07dLE3A0vFe3XOnHcjt7OyfBy/908mSwn2SDhPo3bRKXTHSr/Xd71WT7LwTYG0l2PNKt4MUo8MSHzFUPLDsXUoEAqUT7oN7c8msRfpMoRYIWjA0B4SBb4MzfVFK9CBACpRoRCFS5aIw7wGC1TuyY390MyWHanLgEMS92JYn5Oxl6OlQvfg/Fak4GmmjaM+BpoXvXh2x14j9uLq6WYXTLs0VVg1Lk7754cukgtYKlDIBpE7CNjaSduEXLBGh+BfFgYzwdHb9/t+igoAR9+hvVFwu2/3l4pB54tdiTSrYZJQgliU2MlWLMFImLXhBAOKaUFofwOQzHiyUtzKN6IZkXDDksi5O2OdyxaxpA2BB6thBR/qAx3MMm1hhMvq94AoTXG9BzRXr5zqLNEUZUs4wOHrRqMgSeapZL78EmONag48PV2vydG8J6VPyd0vRlZL8n3Qmb5ScIUQ8jSo9rny6WqiRRgyQITyWuLtlkYe8I+J0GeFezpYbdrqYCxDRk6hP56WjI7fmcfB/f7ZUYOxHG5HUwon3oNdgVxjhfPtenRv9VkyqW6+qsBJBuGL80npMkrszf8pjobBMXCi4YJF9pyrIECIEyGvbhLdiMtCkouoC/Uyp0OQfNQvhSAAUkxvMIIelMco/DZ7xSARC7oYX9kmPSnhsso3EOYzSkywwZJD9mmckTZNXVl4iHslScEEaCvHlPuErB5y96T+RJqCKkIG+WG5Nl2t21SfYgLJ7m+Ua4Oh/0YXzcMrB5FqDu+Ri4g3fcIFBGw4kLBRcMUpj9YZ5GVZMqZ4HvATYZQ03o9nYJ6t/uDzZKMdj+uDyORa8ku8olEb/Vi7Ht6RskvcMOSW+z1ahqHEwdQNzG2huME0bL67Mvk5vCp0RxI8x4sB77Kty7Hh6V+17CtWwlFyptEHdXOcjNy7YYGwT/7EQYBHxljaNpi/L0AHbwDVCxuPqGnpSn5+p3bxXbRNfu098Mbx/5QH6QgjxZlewxeNk+6vmrIFIOamdOJjfTwA7vZXiJ1APE3juBJ2UpbINrwrtVVK/Mqkn7g3ZINbInRJBKUcmtCVXn2BtrpBCggdVycffc3N0+7Ytbxg7ZuX2WLEd2lst8nmWMdJYNWzCoVt3zQtnVGyRNuUlIkLi0cRf2TncrQHzGpG5lsGoyEng00LwHaoX3ToNth1CCcGIE0btwV3K1NG7NoAlRyf7IDZKDb60pqjpJhELYAOmYJi+cOUbgkwone8Gg25uerKA9IfKAzgp6sUjcNCU/XHJjsczv2AdZh40+xCRIL6Rpnc81hvez3iVSL0HYYVutuG2mbD5tmHidfLBVCz6HE4Lu3qugZpxb2kmn5OBkMOBgqAndmi5VWjH3H5aeFZuLjgUws+HnpO09pPYJ8vY1l4h3sIm9F8L20qPFhYM76dxFp91BcJjIAqqYX8ceiKtqVlKvYFscx9kQs/ORaNRtvYFhntcSAEGo/P1o6EI2+qJz5fUZF/jZISxvr5xhTGT8EVdLd0K4pwrt58Ag3QbDlNFhvYgVmtxog9NWOaNK1ChxadWCFivZYvBgbYAHq7jvnuChprBxreX3lgBIXDvEMIYTgzFIxqvlMoyTYRpCKioFKlaaEDgTchhnQszef2Irph30+dUr5ZXTRwgO/vqTG5Pl1qwWqFhJevAZG3bL8q27ijbRQDDQS1qBP2ObWdI+cBVFzbLbzA2z3diJ5jd3lWmMwzNW9RxEtQmx+4CsRSZGpIwonHJLJE8T34V9o7vg7n2G/0Yf/oQ9CpyuiU6McCY/PoVDg+dBTgXUyQ/ypRJVWSwOIjXSEeyP0Ebsgv3huaUbvd1J1mgJCeJOiijerFqY6WY1sZ9F79U7a+XA0ePCHCKJqFfm/ZSoR4fK+2ZTNe6CEZU3lRwVfI7t3sWm3/zueblHoz4/jeVbBiAFkCzKrzeT4kuXy6pxo/w2DeMwnuDgxmCQK5PPQ2Dd6nU7pBjS2AR925YiSSwY1cABT95+ePIKUWgARw9iqK5otC0WZ0zj1GkpgNgeHKgYm++43s+bFYcxQaHt5jnH8rLjvXVSiNtt5oSwF4xZl8pLk8ZJBUd2HA6U69jpR90nARx5qJkrdu0v2h5Jqpq19cqvdksBhF2CyxenGqSQhB+bZF3YLKtrQn5Kjt17y2lHXTbSMH93LYJQi6pVUyeEc2ygF1J1e72lKiUoJakbtWv4gkuJViMljzkc0PBIAr9pXb9SLQeQkkeLASGFEIuobt9qrGMA3k5sSZp0o0GrZVePbC+5dRPZGAwbatujhQZtnDNLTj+lzX8ztdrzef5lHxwalcBhu3UpSZt16i+MR7X83nIAKUgR51TixPHSed2UYnxSHOIEoI5dbTJQcrzfI7sNOPCeTux7zEmDrm1vpMJ5sApHAvpwkMoz7vlkjnHfh9ceVFsooFKtMx48PKGpp/7ijLlvnZYECDvnnkqMo24RGJwEtDfsnFcBkmP/e2vluFGr8HtTEghUGlTXq8UJe+2lsuK8cdHcvwTGQahUXCwqEW2OTTtljaVWNVXN9J3occu1LECCQMLVE5Gnuy89r3L4hQEFJwL160rqA5/PycCVct12GW+Bo+nHQIMGu6R6MtL3hE3G6OcbPi83MT1RELHvNMC5SJAfdrbEoPL0VnVvlh2lWCsWYZ6q+Unc0xF3gtdar6UBws4XDlvlCkkgToR9nzVaPrr4LJmECTCCGdk5EXjHB6VENUAYZhIYuLNvC9LjjLKAUbA5Bh+WBWlQqyoNPNQtJgm/3fp97/RJshHn+adATWyLyovSQrH/4+2y7dO9gjQRJ4jJMe9O4o6OWid5LfVbHiDsfNDqyb+PHSldyDJyGs64T8ofl6oJeQgKVPkMEmO7IzGKKyXOSLfK5te0J/IPAc3uwa3eCyZID1IFfQ68CD05D2l8HPm+Nm7EbjskBhcf+9xJKqVoLUCoVHdAAMR0jnYJhMVCs5lod5qBfUhwsH7kKTJ0+DBoTzlp6+uTHJIM5JE4oO3gYRlrS4tS3V6c8VgCwZWfPp0AAAIQSURBVLOg1Q7+FOySYeBFKVGfOwEAgLfHj5LTh0L9GjlchiNjfR/ujt+z76AMQ0KFwQePBG7CdoKPjw10qeHMm0bgrrnPLEX/8txcR8yW8KReJ/TrBWk7Ix21P1RBEYB+n29ijArP7+SZ8TRkGYna/1rLDygJ4jKj5N25C528CQPMxBDtFRhGQPTg907YKv895Ij0pNnOiDvolLCoS15w4ai0wWpSexYSKWBvY0mrSc+4/AmqN6ABEtThQqqh4zidiE8eSQMGKhh8J4lJkmF4wXoDcXHw5YdbLnMAicsorZdNDihAsjnu2mtPDihAPBmlxbLJAQVINsdde+3JAQWIJ6O0WDY5oADJ5rhrrz05oADxZJQWyyYHFCDZHHfttScHFCCejNJi2eSAAiSb46699uSAAsSTUVosmxxQgGRz3LXXnhxQgHgySotlkwMKkGyOu/bakwMKEE9GabFsckABks1x1157ckAB4skoLZZNDihAsjnu2mtPDihAPBmlxbLJAQVINsdde+3JAQWIJ6O0WDY5oADJ5rhrrz05oADxZJQWyyYHFCDZHHfttScHFCCejNJi2eSAAiSb46699uSAAsSTUVosmxxQgGRz3LXXnhxQgHgySotlkwMKkGyOu/bakwMKEE9GabFsckABks1x1157ckAB4skoLZZNDihAsjnu2mtPDihAPBmlxbLJgf8HITvEquYLDrAAAAAASUVORK5CYII=;" vertex="1" parent="1">
          <mxGeometry x="60.01" y="394.06" width="91.88" height="91.88" as="geometry" />
        </mxCell>
        <mxCell id="x7lhCnKFzgiBbyIF77EN-28" value="" style="shape=image;verticalLabelPosition=bottom;labelBackgroundColor=default;verticalAlign=top;aspect=fixed;imageAspect=0;image=data:image/png,iVBORw0KGgoAAAANSUhEUgAAAMgAAADICAYAAACtWK6eAAAP50lEQVR4Xu2dj3XcNhLGsRWcXUHWFZxdwckVxKogUgUnVRC7Aq8riFJB5AqiVGC5gmwqiDvYmyGx8Uq3JDAzJAYgP76nJ/tphgA/4MfBf24CLigABQYV2EAbKAAFhhUAIKgdUGBEAQCC6gEFAAjqABTQKYAIotMNXitRAICspKDxmDoFAIhON3itRIFFAHL4GF5TeV2ETfghlhv//8VKyrCWx9xTRr6FQ/grZuhhcxseasmcNh/NAkJQXEQofqTfDASu+hT4Rlm6I2g+twpLc4B00WITfiLhb+qrD8jRiAIPBMo1gcKRppmrGUAIjBcExs+k7BWaT83Ur3MZvdvchOtWnqAJQCIcv5Co71oRFvkcVeAxRpPH2nWqHpDYpPqNhNzWLibyJ1KAO/SXtfdNqgaE4NhSs+oLmlSiiteW8SG8IUiqjSTVAhKbVRw5LjJLnEdMWGgO3zzUyP/HVU6BPsJvwr+FTWGOJAzJvlxW81OqF5BdYDhy+hwMxK9ke0ciA4r8sp/Vkl5w7+KgSs4Q/CN13N/MmiHlzasEJIrLgIxd/Ob5ADCUJV/IjcryikD5SMmNT9z2Q8B3hbKVnUydgOzC7/QEFyNPwXCwoPfZTwpDNwViX5JfeGPR5BtFkZdumRxIuDpAMqJHE6MftRW0d35in5IHXLaDeaEWAb303nvn9TT9+gBJRY9+aBCRo6ZalJmXOGTPkAxd1UWRqgCJb5m/RwS8pzB8mVkeMKtQgcMu8ITv1UgUeVvT3EhtgNzEDt15/Q6hKvFOM3myFIb7TsPNiHkrbT/UfQi3tQ6bZrwEq1qKUhcg40O71Q4FxkLngYWcIc15EenvXvXcQiKKVNXMqg2QPwffvhV24I41nQAZj3wlkPj/NKp6Ez+LtjxHMjiMT83oauplNRlhAenNMgZItZ3zZLvaB5DaI+5wX/MQXtYy6VsbIIeRzturitvV7+OssQ8K51OtNoLEl+FYWVezPqsaQOJkEkeQoQ56zYDwXpWx0bfy4FQ+HE5Rl/U6P7te0WBMS4BUE3bP1fZuC/CmG8L0GsE6ZqtbgkPRdleeyvwUE4BU05wGIPllmmUZD5DwOjCCh3n3tbTfxwQDIFnV6btRRhOr6ggifNzVmwMQYRUAIELBGjcHIMICBCBCwRo3ByDCAgQgQsEaNwcgwgIEIELBGjcHIMICBCBCwRo3ByDCAgQgQsEaNwcgwgIsBUi38rafwT3+CHO6WnOeX9lP9fQARKjknIBEKHiNKB90vY1wCHMI86jAA/3mhZC3FkUAiFC9uQCJS0D4VI1a9moIlanW3HRwBgARluvUgJzs8LtCxBAWhsx8p4kmAEQmcpgBkBqXoAtVacZcfFYAABGW7ZSAxNMzeAus16JB4dMvwFy4vB6ACMt8KkBi00pypq8wpzAfUEC0Dx6ACOvRhIDk7g/HOb75ZZQbibN3MQKQfPE7y8kASR96zd/M+0RJNrFvQijjbOZd+fB5Vv1Xvoau7BNJAIiwqCYEZHivcwiqERfhoyzanMppfPDjELK2RgMQYTWZApCMe2QVnjDrqzKPfbyxE0myDvcDIMJqk1G5kzsK4+jV4NmvNZ23JJSnKnOq3Kzx+YnXzM8YABBhkQIQoWCO5gDEQXwA4iC6MkkAohTO4gZALOqV9QUgZfXuUgMgDqIrkwQgSuEsbgDEol5ZXwBSVm9EEAe9LUkCEIt6Sl9EEKVwDm4AxEN0Xsqw6T5/cP7KOBIf8yBlCg6AlNH5SSqIIA6iK5MEIErhLG4AxKJeWV8AUlZvdNId9LYkCUAs6il9EUGUwjm4ARAP0dFJd1BdlyQA0elm8kIEMclX1BmAFJW7TwyAOIiuTBKAKIWzuAEQi3plfQFIWb0RQRz0tiQJQCzqKX0RQZTCObgBEA/RMYrloLouSQCi083khQhikq+oMwApKjdGsRzkNiUJQEzy6ZwRQXS6eXgBEAfVAYiD6MokAYhSOIsbALGoV9YXgJTVG/MgDnpbkgQgFvWUvoggSuEc3ACIh+iYB3FQXZckANHpZvJCBDHJV9QZgBSVG/MgDnKbkgQgJvl0zoggOt08vACIg+oAxEF0ZZIARCmcxQ2AWNQr6wtAyuqNeRAHvS1JAhCLekpfRBClcA5uAMRDdMyDOKiuSxKA6HQzeSGCmOQr6gxAisqNeRAHuU1JAhCTfDpnRBCdbh5eAMRBdQDiILoySQCiFM7iBkAs6pX1BSBl9cY8iIPeliQBiEU9pS8iiFI4BzcA4iE65kEcVNclCUB0upm8EEFM8hV1BiBF5cY8iIPcpiQBiEk+nTMiiE43Dy8A4qA6AHEQXZkkAFEKZ3EDIBb1yvoCkLJ6Yx7EQW9LkgDEop7SFxFEKZyDGwDxEB3zIA6q65IEIDrdTF6IICb5ijoDkKJyYx7EQW5TkgDEJJ/OGRFEp5uHFwBxUB2AOIiuTBKAKIWzuAEQi3plfQFIWb0xD+KgtyVJAGJRT+mLCKIUzsENgHiIjnkQB9V1SQIQnW4mL0QQk3xFnQFIUbkxD+IgtylJAGKST+eMCKLTzcMLgDioDkAcRFcmCUCUwlncAIhFvbK+AKSs3pgHcdDbkiQAsain9EUEUQrn4AZAPETHPIiD6rokAYhON5MXIohJvqLOAKSo3JgHcZDblCQAMcmnc0YE0enm4QVAHFQHIA6iK5MEIErhLG4AxKJeWV8AUlZvzIM46G1JEoBY1FP6ThRBtmET/hzMwiG83NyGb8oswi0qQICwxtuzghzCJWl8nxKL7vE32byw3COVxhR/30xxkynuMREgLwgQFv78dQjXVHh3U+R3rfegcrogjX8f0fgtafyQ0geApBR69vcpAOFbjr7dAkWPQ+ACfBRmD+as7Ud642/Cb/TPixFAXpG++5RgACSl0HyAfKRb3ySSvydQvgqzuG7zTfiBBHhHP+ebRb06D5ub8DZHKACSo9KJzWQRJLVkRZgvmAsUEDRhAYhA165plKrYgg423es9NQV+FmYB5jYF7ih6XOfeAoDkKhXtpgSkA24XvtCv18JswFynAPftuO+RPUIIQIRCTw5IH5EYkrE2szCXMD+jAMPBo4PJod1TXwAirEtTAxKbbTzqwp32K2F2YJ6nwEOEY59n/t0KgAgVmwOQYxbo3lexT7IVZgvm5xXgqPGB/nQnaVYhghiq05yAnIDCw5SvCRYeskTTS15eewLjM7k9asH4pywwky5TvwQgshzBek4F0MQSqgtAhII1bg5AhAUIQISCNW4OQIQFCECEgjVuDkCEBQhAhII1bg5AhAUIQISCNW4OQIQFCECEgjVuDkCEBQhAhII1bg5AhAUIQISCNW4OQIQFCECEgjVuDkCEBbhWQLo93s+XvxzCX1G+h5z93UKpqzAHIMJiWBMg3d5u3ha8CT92cKSvHa2B+pSz1zt9qzosAIiwHNYASDz0gHc6XtGPZrEkg/LBulBQWDSzmAMQoaxLByQ+3y8kCzepLNciTmYBIMIqsGRA6Nl4iT0fl7MVyjJs3h9f9DDZ/QrfCIAIBV8qIPG5+KC16eA4ansIb1o94wuAAJC8g9aEOj0zFx+WYEtuOm8AItRyiRGEnolHqnhPfOri00D2Jz88spXbVxEdt5PKSKm/AxCh0ksDJI5Y8SHPqdGqwZGpbMD6I3cYsGYuACIsqgUCkooevL/7NnVcTuzg8+jX2HxJc1EEgKwdkF13AvpwMynzMwEsY/LlQYdy06mGL4WSu5oDEKH8yUogOHpUmPTk5rF5NfwZhhB2VKFvJQknm1uNDfsCEEnp57wl2wIk9Q0NVZ+BKtVhUNa+ubYTyu5mDkCE0i8sgvBBddxvOHepm0OJ84bFUUlYRJOaAxChnAsDZKyDnv0NjecSUqUa+/bJPTXbLoWyu5kDEKH0CwNk7PMLFkA4Kl0NSNvUSBYAWTcg7+LaKzSxBuoBAAEgvDjx/KWY2EtOPPbL4N8LZXczByBC6RfWxBr/2q7gW35HGUmf8a9mYZhXWOPyzBf1Gei8Ry5jRW/IKScKediYI9LQspU9ddBflXmyaVJBBBHquKQIwo9OzzM21Nurk/HRy27Pej9kvB1psjXVvOoeHZ8/kBGyNEBiJeDFisMVu5eIv9LEk3xPvt0e12D9RH9PfdKal7zzvpC9THFfawAi1H+RgOREkac68Xf+GCj+Sa0CPkah5qIHIogQjk6wCT8DrUh+Nhd6U3Lfgb9sNcf1SNGDt95mf112jkxo7okIIlRtsYDwET+brsOec7yPRLWmD28AIJKiXnAEidFxakhUn14WFsms5gBEKG9yiXhDq3mHHn2i5hY3qy5b65Q/1wSACAGJHbex5dzNnuBxKkUc/uXD47gjLrnMn16WJDa3bWLpvmo7wBx5rmaiMALCm4zOj940NlOcKqy4AYqPHr1I2PIw8B9ks2uxM37u2eIQ9pfB51YsxUnprf17bYCwaEOd2aZWq0oKhCoMj3Lxi2FLHfp/ERB8eDXPi+xbb0oNADK6X59WBVRTL6vJSIwgY8u51RuNJJUVtvMrkOiLPRIgb+bPRV4KdQHCb9J+zdH5S3DQQd7jw6q0ArF5xcPeQ03pqiY+awMktQq2uUV5pStg7ellLOKspoPOWlYFSEYzi02a2ntde4Utmb/kySzU76qpeVUnIP1J6MMjHB1F4Zo6r3clCxdp2RRINq0qLdfqIkiMIun1S43toLNVr7a9Y+TguZ+xBZjqvfpzqlMnIP36pbGD146a8BwBR5P9nCLh3joF4uoIBiO1ZJ9bBVV+76RKQLookn8yetcv4cm01Dm3umKGl0SBDor+o6Q8CXqViBrHW1fbr6wWkNjUGpsXGSo3jiZPNh9JCrgx236Z+/ev4vKzdz+lomrc8Xj8GGk/2Zm7l6UXu+ol+1UDEiEZm11vrD4Xz27/sjiEr/GlwZ+VnmzvSPIgifTj8gn3vMZusjylk5RZVA9IhCTdaZc995qtGZp7a5M0Rg6e8NNeTfQfmwCkgyR17I22mODHsHyWDpsL+4jPVW7mc9bNABIhmf5rsQDkVIHszrLyhcVNqk8tnULfFCDHkoxvr//S/7eo37MokAQluUX6abaa3cvSJCAnoPDixv/Q/6/oJ+8UkFnq0yJvypWady4+DD1dt0x/eHEpd7y5n/Er/665Iz5Wek0Dcvpg3Rut30tyHGpcZK198lC8d6R/3uMPazBlVE1uMeiWkHzXnaHY00/3u1UoTjVeDCDLpyH/CU9eFtxn4wh7fHHk3+SfML3udW8ARF5lmvR4Bg333/KapCtfGApAmqzu9kzH/gNHl/F1UhXtD7c/tfwOAESu2eI8Buc0sGK6vg1Ti6t9DT1QBIWjCs9XfJVOHjb0qNlZRQTJlgqGa1QAgKyx1PHM2QoAkGypYLhGBQDIGksdz5ytAADJlgqGa1QAgKyx1PHM2Qr8D1swEm5visnAAAAAAElFTkSuQmCC;" vertex="1" parent="1">
          <mxGeometry x="183.76" y="415" width="50" height="50" as="geometry" />
        </mxCell>
        <mxCell id="x7lhCnKFzgiBbyIF77EN-42" value="" style="shape=image;verticalLabelPosition=bottom;labelBackgroundColor=default;verticalAlign=top;aspect=fixed;imageAspect=0;image=data:image/png,iVBORw0KGgoAAAANSUhEUgAAAMgAAADICAYAAACtWK6eAAATSElEQVR4Xu2df4xdRRXHz32vfbtbut0tKL9MyS5aiC2StgT/QEy3NBKBJrAo4Q817ZJIJDW0a60GE9w2JMoPK62RNNGEloB/GCxdDIqp0i5qaoKBrkWKItKVRvqD4r5tS3f72veuc96+t112331v7vy8c+fcpKENM3NnvnM+b+bMnJkbAD2kACkQqUBA2pACpEC0AgQIWQcpUEcBAoTMgxQgQMgGSAExBWgEEdONcnmiAAHiSUdTM8UUIEDEdKNcnihAgHjS0dRMMQUIEDHdKJcnChAgnnQ0NVNMAQJETDfK5YkCBIgnHU3NFFOAABHTjXJ5ogAB4klHUzPFFCBAmG7DYdgOZ6EjG0JHyP5ACO2ZLLSFAO34dwjYn7Q9IeTLTQogz4wgXyrCCP6zBDAAWcjPzQWDaWuySHu8A6QMwxgsygB0BVlYGjAAGAgdTLz0QSBiER/NM8T+ORgEMMR+OF6e0xT0yxfpVgmpB2QyEJkM3E4wSBpoAAPMaAbPFeH5uS3BgGRpic+eWkCGR8OuGVkGRAiraHTQZ4dsdNmcZlhSBQiDooNNnVZVRopF+syCSq6hwBCDpZ/BsoWNLDg1S8WTCkBotEicLfYXS9CbBlCcBgTByGZgDTOPOxJnIlQhVMB5UJwEpAxGFvrYEmwX2aEDCjDHvliEHhdHFKcAwRWpGWehjxxvB6CoUUV06FtzQa9LtXcGkMp0ahsTt8Mlgamu0xTIs93I3jktwXYXtEk8IDhqZAuAYJCf4YJFcdaxvJdSgu6kT7sSDQiNGpzW5m4yDHfpSfIOfSIBIV/DXYsXqXlYgo1tLcEGkby68yQOEJpS6e7yZJZfnnLlYNncIBgPokzIkyhAhgvhIhZRu5Mc8YRYh/lq5IsBgyRBkcSJAYTgMG+NCX1joiBJBCAVZxxHDgo5T6jVmq4WC1VZloRoYeuAnBgNV0EGHic4TJugA+8rsRUuy/slVgGpTKv2EBwOGKulKtoeSawBQnBYsjgHX8sc98W2HHcrgOC5DRaFiyNHh4P9RVU2r4A1x904IOVNwALsYUdf6UCTeUNz+Y35Yg46Te+TGAfkxJkQV6sorsplU7VVdxY2PycXLDP5eqOAjIyFa1nIM65Y0UMKCClgOmTeGCC01yFkD5SptgLdpgIcjQBSia86SMu5ZO+KFMiz5d/FJkLljQBCfocis6BizitgyB/RDgiDAx1ydMzpIQXUKmBgp10rILSkq9YeqLRpCmhf+tUKyMhouCHIsNtH6CEFdCkQwHa29Nujr3hNJVMoiSZhqdhpCugMRdE2gpwohHvo3iqyZhMK4GnE1qZgsY53aQGksueBsVb0kAKmFNCyN6IFEFrWNWUT9J6qArpGEeWAVHyPfdR1pIBpBXT4IsoBYb7HNuZ7rDIpzu8G9sM/D74Pb7yThw/HWJwwPRMKXNAcwMIr2+GuW5bA5ZfOTbsy/SwEpVtlI5UCUjnngaOHkbPl7x0ZhvWbXoLDhU7I5lpV6pLKsm6c9zb03X9rKttWbRQLQelUGYKiFBDT+x5fWf8rOAbXprrDVTfu2rkHYNP30nvaQHW0r1JAmHOOAYkdqju1Vnlbtr0ELxyYZ+JVqXvHIytnwpJrOlPXrkqD8myapWwuqQwQ00u7NHqI23faRxGmjLIlX2WAmJ5erVi9E87MWljXSoqFkzCjcBg+PnsMRk5n4fSMK8hXYYq1Fl6H57Z8SZywpOdUGH6iBJDKeQ90zo1Mr7B/br7vBQhnXxXZVcGpt+Dh1QunTSXW/aAf9g8vSHoXa61f6gEBUDbNUgKIjZD2eoA0nX4DXngierXPd//FA0CAfaRHyaVzSgAxPb2qN4LgtOo73TPhi131V7d4pmhaf8YtFu4FIIqmWUoAsRGYGDWC4NRq19YVDc1v409+C38+9KmG6dKYwAtAFE2zpAGp+B/Dpg0pCpCLYT/84rEvN6zOMzv3wlN7P9YwXRoTeAIIqNg0lAbEhv9Rb4rVyP+oGrzPfogvgKjwQ6QBseF/NPJBdm+5ruEP/70P7oCDY59pmC6NCbwBRIEfIg2IrdD2eqtYjTbCXvv7Qfj2z//n7Z6IR4BI38SoAhBj4SWTf80b7YNEBeZh5O+jz45AdtYlaRwcuNrkDSAKHHUVgFiJL28ECFpK6dQQLJp3GhZ/+mL4ID8KrxwYpshfH3bSJ/1MsAuv58pceC0FiM3DUTyAcP2cepjIoxEEZA9RSQFiawULbZqCFcXJ5l0KF39DcnKGIfS2NQebRWskBYjN29p93ugT7exqvhULDsGanuWyxTiRPyzBxraWYINoZeUAsXwx3PL7dkFmdodo273Mx7tPlBZxZA9QSQFyshA+zoawtbbExCO3X9v4V4KEswMwDGd73+d8OJt+XhHJvRApQGxc0FDLFjCE/eDRIowUWiHMXcRpLv4km3XuXbj6EwGsu2epX3CMd7HURQ5ygNDn1PyhzN2WEiDu9h3VXLsCkt8RkRtB6P5d7f1LL5BTQPbGRQJETn/KnXAFCJCEdxBVz64CBIhd/entCVeAAGEdhKcDX9z7Hrx/qjnh3WW+ernMWbj8whLcuXx+w3P65mun/41eA4Ibhfc+NNDwfiz93eDGG3yKwar2iNeA+HwziSiS3oWaSH59ytlVLApWFEUEYN1tY95Mt7wdQe5cswNO5vw8Uy6OxnjORkeSZctPUn5vAeE5MIWXyAWFD6Al8yEUSjPrXlWapE7VXRefDkwRIBHWhJGr37r7imlTCTpo5cHl1ZNsggCpAUijsG7f/RcaQfjHaGed9KgpFu/dvDxTNH4Z3UpJgPD3V+oAwZtMXtp6c0MFfB5FCJCG5jGRIHWA8G6G0d28Kf6ADvkg0R/Q4d0Io7t5CRCecSR1Iwj6IHQ3b/2upykWDxrjaVIHCDaq0bU2dDdvyr9RSFOs+t8oxFHknq4z8NXuG6b9VFCAI+2D8I8fKR1BqgKgw37LDZfDgvmXwbHjJ+H3e9+BfUfneXure1UXmmLxI5LKKRZ/8/1MSYDw97uzgFDICH8nT01JwYr82jkLiM/7GPzdWzvlyhuO1/TPZMtNYn5vY7HKq1Wrd9JpwphWybuRGrPYxCb3GhDsFZpq8dsmwvHYuuVeXT/qPSBoHvhZNVyhwvt5TxWa+C3Gg5R0aQMMtjYFi0W72lkfRLTBlM8vBWgE8au/qbUxFSBAYgpGyf1SgADxq7+ptTEVIEBiCuZ7coxF2/+PQ3B8+FT509gXtbeUQ3GWXNOZSmkIkFR2q9pGVa9mPXJqTvkLXNlca80X4FkavKb0G3cvSQ0w3gOCv4i7//ImPDdwGPLnLo5lWUFpNFb6uImzUJiW5bbPthj5wizq8uyLr8GvXykKfcMR90zWrbzOeVC8BgTPdXx/66Azu+mmYqBwxNi265QQGFOJdn3n3WtAXLqZhNfQ8JcfnyPH8xO2yusfYN5v/nC38hsneW+KiTvCmkjvLSAuBSuigT3zwJV1QzxwNNz01KtwuNBZ00conj4Ks+A4XH91E/Tdf+s020I9nvxDEbKzLtFid65C4i0g+Onn/cMLtBiD6kI7m1+Hnz0UfUnCvQ/ugLdPdMQ6yDV5REItTBwEQ0h+9PULnfJLvAUEjergWPIvr240esiAjneAteVOKp9S1fuBwJHsmQevcSbgkQBR/XOvuLx6voerl9e5dCKRAFFs0KqKw5FjRuFwzQu0q+9Yft8uJStNqurMWw7v1Uq85elMR4DoVFegbLw4G/c67rplSd1piOsX19047+2aiwUCkmnNQoBolZevcJ7RYmpJrp+G5L0DmU9BfakIEH3acpWMhrL+7ktjf9LsptV/0rYky1VxBYkeWTkz8StaBIiCjhYtQvQIK27ordz0vuhrE5PPhcsfCBAL5oJTqqWfPCo8B8cjwpt+4/433U2Fzsh0MQEio55AXnTCH169kGtqUQ2k3PfmMTgyfK78tguaA/hwLIRjcK3A25OVpdEGaBJqS4AY7AVc///pAzdFrk5Vgfjja4fh38dbnVzCjSMnb3xZnDJVpyVAVCsaUR4640/3XV8TDgRj05Mvw77/srMWmmKhDDUz1mt4v8USq1DFiQkQxYLWKq5eeIXK0HIDTVH+iqTvhxAgyrt8eoFR3xtBZ/vRnWdjBRkaqK7xV+Do+tjq+Vx+menKESCaFY+aRvj+EZ5asifRJyFANAOy7raxmpuAru+E65INV/l2bV2hq/jY5RIgsSXjzxAVToGjx3efOstfkGcpEwVJAANzcsEy0S6QvXp0G4SwSvTlMvlMnAeJWuc38W4ZbZKQNzGQ2ATkZCF8PAxhrY0OMWGkUbFGroapm+6nhJwb6Z/TFHSLtl1qBEkzILi0u/uJz9fU9Qvr3xLV26t8iTiiG8B2NsXqERVeCpCR0XBDkIE+0ZfL5NM9gpD/IdM75/PaHkWCADa35oJe0dYQIBHKRXVsWgINRQ1GJJ/NsHirgJw4E97BBNspIppsHt0jSNSavkvXDclqrCq/1ajfEvTMaQm2i7ZFagQZDsP2bAHGbzoz/NgCxPWjsoa7qfw6m1G/xRIsm9sSDIi2mwChKZao7XDnsxnUyADpZIAMcVd2SkIpQLAsNs06yP7TIVoB0Xy6R5CoTk3LaUBR3UXyWbwFZYgt8XaK1LmaRx6QQriHbRZ2yVRCJK9uQOptdN205lXvAxTj9Jm1Cx4kNwmxjdKA2NoL0Q1IvV892iiMgweArSmW7AqWEkBsrWTpBgTFiVqepG+zxwPEYpRvN5ti9cer7UdTS48gtlayTAAStTxJfkg8k7N1qErWQVcygmAhJ8+E+0KARfFkk0ttApB6U4M71+wwemm0nFr2ctv6bIJsmLsyJ70MiIWgRROA1PNDaBThg87WHogK/0PZCGLDDzEBCApUb3pgqg58ppi8VI0+/aC5xtL+hzJAKn4I7oe0a270RPGmjLPREiVNtaJ73NbowWqUL+bYBmEQnP+OnaBhSjvp1feeKIRGD0+ZAqTeala17QTJdOuzCAdWRuoMyOTWKANkeDTsymZgjyCosbOZ9AF4QrZd+qBobLFjZJC9ljXGq+olVTK9UjbFmhhFDIedmLwhnSdkW+ZzaooMw2oxCMfti/JGvgNfp6HKplfKATG9mmXy8gSeUQQFxfMiP/7luxDOvsqqsZp8OYKx+JJDsO6epda/Xahq9aqqn7IpFhZoY9OwfHnbsyNGrvzkGUWqwla/PGvSUG28KylgVNsuG94+VUOlgGDhpp31aoNwNDnwr8NabWTB/MsSeXug1ka7Vbgy51zLCFIeRUbDDuas45IvPaSAUQVUjx7KfZCqGmzjEI/h4nFcekgBUwooHz20ATJcCBdlQ9hnShl6DymgY/TQBggWbCOAkczEUwUUHIyKUk65k159EfkinhqrhWbrGj20jiBYuK0VLQt9RK+0pIDqfY+pzdA2guCLKvsi6It0WNKPXptuBZTumteSSisg5VHE4uVy6bYNah27OL23rTnYrFMJ7YCQw66z+zwuW6NjPllVI4DYOC/isen40PR8MWA3JuaCQd2NNQJI2R8xHA6vWzgq36oCysLZG7XCGCDlqZaFs+uNBKD/75YCuletjK5i1ZKeNhDdMsgk1RZvKjmXY1MrBUdpedtldAQpT7XGb4SnpV/eHqJ0VQWGKhuCQyYlMQ5IxR/BiF+ExNglDyZFpXcpV8CYU259ilWtAAU0KjeitBaIN5P0yF4hKiqOlRFkAhJa2RLtN1/yWYUDRbYKSGW6ZfQ2FF8sKwXtzEMJemU+n6ZCA+uAECQqujF1ZVgfOaqKJgKQMiTjh6zwXi1y3FNn77EalBg4EjHFmiwdQRLLkNKYeIiFkHSbCCHhFS8xI8iE4872SWYUYI/pzynwCkbpNCnAgg+LReiR+eCmjpolDpBqIyksRUd3J7NMDB85NxM2mtwh51UisYCQ887bhU6nS5S/UUvJRANShoSmXE4TEFn5hE6pptY38YBUKzwyFq5lQ3EfrXI5z0uenQTcWGqC7UmcUjkLSLXidBGEw4AEsL04E3pdAKOqsjMjyNTl4BkhbKOVLkdgwekUMDAMnABUrYiTgEwsCY/Hcq1h/6ZrTlVbhoryxv2MjWzpdkBFcTbKcBqQCVBwFx4YKCGssiEivXOKAg6PGM77IPWMEXfiM0W4IxgfVShkxSy5+bAEW0pZ6HdxKhUlVSpGkFqNK9/HFcDtNKpopSTPNB5E/wJmwpBLzjevKqkFZLIACAtbIl7KYOkix57XNGqnw3PhDIqBc0V4HpphMI1QTG65F4B8ZAVs/Ex8FwJThiVkf2g6FkVNnhnIEAIRFuFvxWY2fTJ4YYIcympyewdIlGzlKVkJ2hk0HZkstLH/tjN42plxlH2ZAP+esoe1cajcpAAQBAz7gFIJ/lPKwEBap0xxu5AAiasYpfdKAQLEq+6mxsZVgACJqxil90oBAsSr7qbGxlWAAImrGKX3SgECxKvupsbGVYAAiasYpfdKAQLEq+6mxsZVgACJqxil90oBAsSr7qbGxlWAAImrGKX3SgECxKvupsbGVYAAiasYpfdKAQLEq+6mxsZVgACJqxil90qB/wPGAwlQ2wwenQAAAABJRU5ErkJggg==;" vertex="1" parent="1">
          <mxGeometry x="103.75999999999999" y="130" width="100" height="100" as="geometry" />
        </mxCell>
        <mxCell id="x7lhCnKFzgiBbyIF77EN-43" value="" style="shape=image;verticalLabelPosition=bottom;labelBackgroundColor=default;verticalAlign=top;aspect=fixed;imageAspect=0;image=data:image/png,iVBORw0KGgoAAAANSUhEUgAAAMgAAADICAYAAACtWK6eAAATSElEQVR4Xu2df4xdRRXHz32vfbtbut0tKL9MyS5aiC2StgT/QEy3NBKBJrAo4Q817ZJIJDW0a60GE9w2JMoPK62RNNGEloB/GCxdDIqp0i5qaoKBrkWKItKVRvqD4r5tS3f72veuc96+t112331v7vy8c+fcpKENM3NnvnM+b+bMnJkbAD2kACkQqUBA2pACpEC0AgQIWQcpUEcBAoTMgxQgQMgGSAExBWgEEdONcnmiAAHiSUdTM8UUIEDEdKNcnihAgHjS0dRMMQUIEDHdKJcnChAgnnQ0NVNMAQJETDfK5YkCBIgnHU3NFFOAABHTjXJ5ogAB4klHUzPFFCBAmG7DYdgOZ6EjG0JHyP5ACO2ZLLSFAO34dwjYn7Q9IeTLTQogz4wgXyrCCP6zBDAAWcjPzQWDaWuySHu8A6QMwxgsygB0BVlYGjAAGAgdTLz0QSBiER/NM8T+ORgEMMR+OF6e0xT0yxfpVgmpB2QyEJkM3E4wSBpoAAPMaAbPFeH5uS3BgGRpic+eWkCGR8OuGVkGRAiraHTQZ4dsdNmcZlhSBQiDooNNnVZVRopF+syCSq6hwBCDpZ/BsoWNLDg1S8WTCkBotEicLfYXS9CbBlCcBgTByGZgDTOPOxJnIlQhVMB5UJwEpAxGFvrYEmwX2aEDCjDHvliEHhdHFKcAwRWpGWehjxxvB6CoUUV06FtzQa9LtXcGkMp0ahsTt8Mlgamu0xTIs93I3jktwXYXtEk8IDhqZAuAYJCf4YJFcdaxvJdSgu6kT7sSDQiNGpzW5m4yDHfpSfIOfSIBIV/DXYsXqXlYgo1tLcEGkby68yQOEJpS6e7yZJZfnnLlYNncIBgPokzIkyhAhgvhIhZRu5Mc8YRYh/lq5IsBgyRBkcSJAYTgMG+NCX1joiBJBCAVZxxHDgo5T6jVmq4WC1VZloRoYeuAnBgNV0EGHic4TJugA+8rsRUuy/slVgGpTKv2EBwOGKulKtoeSawBQnBYsjgHX8sc98W2HHcrgOC5DRaFiyNHh4P9RVU2r4A1x904IOVNwALsYUdf6UCTeUNz+Y35Yg46Te+TGAfkxJkQV6sorsplU7VVdxY2PycXLDP5eqOAjIyFa1nIM65Y0UMKCClgOmTeGCC01yFkD5SptgLdpgIcjQBSia86SMu5ZO+KFMiz5d/FJkLljQBCfocis6BizitgyB/RDgiDAx1ydMzpIQXUKmBgp10rILSkq9YeqLRpCmhf+tUKyMhouCHIsNtH6CEFdCkQwHa29Nujr3hNJVMoiSZhqdhpCugMRdE2gpwohHvo3iqyZhMK4GnE1qZgsY53aQGksueBsVb0kAKmFNCyN6IFEFrWNWUT9J6qArpGEeWAVHyPfdR1pIBpBXT4IsoBYb7HNuZ7rDIpzu8G9sM/D74Pb7yThw/HWJwwPRMKXNAcwMIr2+GuW5bA5ZfOTbsy/SwEpVtlI5UCUjnngaOHkbPl7x0ZhvWbXoLDhU7I5lpV6pLKsm6c9zb03X9rKttWbRQLQelUGYKiFBDT+x5fWf8rOAbXprrDVTfu2rkHYNP30nvaQHW0r1JAmHOOAYkdqju1Vnlbtr0ELxyYZ+JVqXvHIytnwpJrOlPXrkqD8myapWwuqQwQ00u7NHqI23faRxGmjLIlX2WAmJ5erVi9E87MWljXSoqFkzCjcBg+PnsMRk5n4fSMK8hXYYq1Fl6H57Z8SZywpOdUGH6iBJDKeQ90zo1Mr7B/br7vBQhnXxXZVcGpt+Dh1QunTSXW/aAf9g8vSHoXa61f6gEBUDbNUgKIjZD2eoA0nX4DXngierXPd//FA0CAfaRHyaVzSgAxPb2qN4LgtOo73TPhi131V7d4pmhaf8YtFu4FIIqmWUoAsRGYGDWC4NRq19YVDc1v409+C38+9KmG6dKYwAtAFE2zpAGp+B/Dpg0pCpCLYT/84rEvN6zOMzv3wlN7P9YwXRoTeAIIqNg0lAbEhv9Rb4rVyP+oGrzPfogvgKjwQ6QBseF/NPJBdm+5ruEP/70P7oCDY59pmC6NCbwBRIEfIg2IrdD2eqtYjTbCXvv7Qfj2z//n7Z6IR4BI38SoAhBj4SWTf80b7YNEBeZh5O+jz45AdtYlaRwcuNrkDSAKHHUVgFiJL28ECFpK6dQQLJp3GhZ/+mL4ID8KrxwYpshfH3bSJ/1MsAuv58pceC0FiM3DUTyAcP2cepjIoxEEZA9RSQFiawULbZqCFcXJ5l0KF39DcnKGIfS2NQebRWskBYjN29p93ugT7exqvhULDsGanuWyxTiRPyzBxraWYINoZeUAsXwx3PL7dkFmdodo273Mx7tPlBZxZA9QSQFyshA+zoawtbbExCO3X9v4V4KEswMwDGd73+d8OJt+XhHJvRApQGxc0FDLFjCE/eDRIowUWiHMXcRpLv4km3XuXbj6EwGsu2epX3CMd7HURQ5ygNDn1PyhzN2WEiDu9h3VXLsCkt8RkRtB6P5d7f1LL5BTQPbGRQJETn/KnXAFCJCEdxBVz64CBIhd/entCVeAAGEdhKcDX9z7Hrx/qjnh3WW+ernMWbj8whLcuXx+w3P65mun/41eA4Ibhfc+NNDwfiz93eDGG3yKwar2iNeA+HwziSiS3oWaSH59ytlVLApWFEUEYN1tY95Mt7wdQe5cswNO5vw8Uy6OxnjORkeSZctPUn5vAeE5MIWXyAWFD6Al8yEUSjPrXlWapE7VXRefDkwRIBHWhJGr37r7imlTCTpo5cHl1ZNsggCpAUijsG7f/RcaQfjHaGed9KgpFu/dvDxTNH4Z3UpJgPD3V+oAwZtMXtp6c0MFfB5FCJCG5jGRIHWA8G6G0d28Kf6ADvkg0R/Q4d0Io7t5CRCecSR1Iwj6IHQ3b/2upykWDxrjaVIHCDaq0bU2dDdvyr9RSFOs+t8oxFHknq4z8NXuG6b9VFCAI+2D8I8fKR1BqgKgw37LDZfDgvmXwbHjJ+H3e9+BfUfneXure1UXmmLxI5LKKRZ/8/1MSYDw97uzgFDICH8nT01JwYr82jkLiM/7GPzdWzvlyhuO1/TPZMtNYn5vY7HKq1Wrd9JpwphWybuRGrPYxCb3GhDsFZpq8dsmwvHYuuVeXT/qPSBoHvhZNVyhwvt5TxWa+C3Gg5R0aQMMtjYFi0W72lkfRLTBlM8vBWgE8au/qbUxFSBAYgpGyf1SgADxq7+ptTEVIEBiCuZ7coxF2/+PQ3B8+FT509gXtbeUQ3GWXNOZSmkIkFR2q9pGVa9mPXJqTvkLXNlca80X4FkavKb0G3cvSQ0w3gOCv4i7//ImPDdwGPLnLo5lWUFpNFb6uImzUJiW5bbPthj5wizq8uyLr8GvXykKfcMR90zWrbzOeVC8BgTPdXx/66Azu+mmYqBwxNi265QQGFOJdn3n3WtAXLqZhNfQ8JcfnyPH8xO2yusfYN5v/nC38hsneW+KiTvCmkjvLSAuBSuigT3zwJV1QzxwNNz01KtwuNBZ00conj4Ks+A4XH91E/Tdf+s020I9nvxDEbKzLtFid65C4i0g+Onn/cMLtBiD6kI7m1+Hnz0UfUnCvQ/ugLdPdMQ6yDV5REItTBwEQ0h+9PULnfJLvAUEjergWPIvr240esiAjneAteVOKp9S1fuBwJHsmQevcSbgkQBR/XOvuLx6voerl9e5dCKRAFFs0KqKw5FjRuFwzQu0q+9Yft8uJStNqurMWw7v1Uq85elMR4DoVFegbLw4G/c67rplSd1piOsX19047+2aiwUCkmnNQoBolZevcJ7RYmpJrp+G5L0DmU9BfakIEH3acpWMhrL+7ktjf9LsptV/0rYky1VxBYkeWTkz8StaBIiCjhYtQvQIK27ordz0vuhrE5PPhcsfCBAL5oJTqqWfPCo8B8cjwpt+4/433U2Fzsh0MQEio55AXnTCH169kGtqUQ2k3PfmMTgyfK78tguaA/hwLIRjcK3A25OVpdEGaBJqS4AY7AVc///pAzdFrk5Vgfjja4fh38dbnVzCjSMnb3xZnDJVpyVAVCsaUR4640/3XV8TDgRj05Mvw77/srMWmmKhDDUz1mt4v8USq1DFiQkQxYLWKq5eeIXK0HIDTVH+iqTvhxAgyrt8eoFR3xtBZ/vRnWdjBRkaqK7xV+Do+tjq+Vx+menKESCaFY+aRvj+EZ5asifRJyFANAOy7raxmpuAru+E65INV/l2bV2hq/jY5RIgsSXjzxAVToGjx3efOstfkGcpEwVJAANzcsEy0S6QvXp0G4SwSvTlMvlMnAeJWuc38W4ZbZKQNzGQ2ATkZCF8PAxhrY0OMWGkUbFGroapm+6nhJwb6Z/TFHSLtl1qBEkzILi0u/uJz9fU9Qvr3xLV26t8iTiiG8B2NsXqERVeCpCR0XBDkIE+0ZfL5NM9gpD/IdM75/PaHkWCADa35oJe0dYQIBHKRXVsWgINRQ1GJJ/NsHirgJw4E97BBNspIppsHt0jSNSavkvXDclqrCq/1ajfEvTMaQm2i7ZFagQZDsP2bAHGbzoz/NgCxPWjsoa7qfw6m1G/xRIsm9sSDIi2mwChKZao7XDnsxnUyADpZIAMcVd2SkIpQLAsNs06yP7TIVoB0Xy6R5CoTk3LaUBR3UXyWbwFZYgt8XaK1LmaRx6QQriHbRZ2yVRCJK9uQOptdN205lXvAxTj9Jm1Cx4kNwmxjdKA2NoL0Q1IvV892iiMgweArSmW7AqWEkBsrWTpBgTFiVqepG+zxwPEYpRvN5ti9cer7UdTS48gtlayTAAStTxJfkg8k7N1qErWQVcygmAhJ8+E+0KARfFkk0ttApB6U4M71+wwemm0nFr2ctv6bIJsmLsyJ70MiIWgRROA1PNDaBThg87WHogK/0PZCGLDDzEBCApUb3pgqg58ppi8VI0+/aC5xtL+hzJAKn4I7oe0a270RPGmjLPREiVNtaJ73NbowWqUL+bYBmEQnP+OnaBhSjvp1feeKIRGD0+ZAqTeala17QTJdOuzCAdWRuoMyOTWKANkeDTsymZgjyCosbOZ9AF4QrZd+qBobLFjZJC9ljXGq+olVTK9UjbFmhhFDIedmLwhnSdkW+ZzaooMw2oxCMfti/JGvgNfp6HKplfKATG9mmXy8gSeUQQFxfMiP/7luxDOvsqqsZp8OYKx+JJDsO6epda/Xahq9aqqn7IpFhZoY9OwfHnbsyNGrvzkGUWqwla/PGvSUG28KylgVNsuG94+VUOlgGDhpp31aoNwNDnwr8NabWTB/MsSeXug1ka7Vbgy51zLCFIeRUbDDuas45IvPaSAUQVUjx7KfZCqGmzjEI/h4nFcekgBUwooHz20ATJcCBdlQ9hnShl6DymgY/TQBggWbCOAkczEUwUUHIyKUk65k159EfkinhqrhWbrGj20jiBYuK0VLQt9RK+0pIDqfY+pzdA2guCLKvsi6It0WNKPXptuBZTumteSSisg5VHE4uVy6bYNah27OL23rTnYrFMJ7YCQw66z+zwuW6NjPllVI4DYOC/isen40PR8MWA3JuaCQd2NNQJI2R8xHA6vWzgq36oCysLZG7XCGCDlqZaFs+uNBKD/75YCuletjK5i1ZKeNhDdMsgk1RZvKjmXY1MrBUdpedtldAQpT7XGb4SnpV/eHqJ0VQWGKhuCQyYlMQ5IxR/BiF+ExNglDyZFpXcpV8CYU259ilWtAAU0KjeitBaIN5P0yF4hKiqOlRFkAhJa2RLtN1/yWYUDRbYKSGW6ZfQ2FF8sKwXtzEMJemU+n6ZCA+uAECQqujF1ZVgfOaqKJgKQMiTjh6zwXi1y3FNn77EalBg4EjHFmiwdQRLLkNKYeIiFkHSbCCHhFS8xI8iE4872SWYUYI/pzynwCkbpNCnAgg+LReiR+eCmjpolDpBqIyksRUd3J7NMDB85NxM2mtwh51UisYCQ887bhU6nS5S/UUvJRANShoSmXE4TEFn5hE6pptY38YBUKzwyFq5lQ3EfrXI5z0uenQTcWGqC7UmcUjkLSLXidBGEw4AEsL04E3pdAKOqsjMjyNTl4BkhbKOVLkdgwekUMDAMnABUrYiTgEwsCY/Hcq1h/6ZrTlVbhoryxv2MjWzpdkBFcTbKcBqQCVBwFx4YKCGssiEivXOKAg6PGM77IPWMEXfiM0W4IxgfVShkxSy5+bAEW0pZ6HdxKhUlVSpGkFqNK9/HFcDtNKpopSTPNB5E/wJmwpBLzjevKqkFZLIACAtbIl7KYOkix57XNGqnw3PhDIqBc0V4HpphMI1QTG65F4B8ZAVs/Ex8FwJThiVkf2g6FkVNnhnIEAIRFuFvxWY2fTJ4YYIcympyewdIlGzlKVkJ2hk0HZkstLH/tjN42plxlH2ZAP+esoe1cajcpAAQBAz7gFIJ/lPKwEBap0xxu5AAiasYpfdKAQLEq+6mxsZVgACJqxil90oBAsSr7qbGxlWAAImrGKX3SgECxKvupsbGVYAAiasYpfdKAQLEq+6mxsZVgACJqxil90oBAsSr7qbGxlWAAImrGKX3SgECxKvupsbGVYAAiasYpfdKAQLEq+6mxsZVgACJqxil90qB/wPGAwlQ2wwenQAAAABJRU5ErkJggg==;" vertex="1" parent="1">
          <mxGeometry x="203.76" y="110" width="100" height="100" as="geometry" />
        </mxCell>
        <mxCell id="x7lhCnKFzgiBbyIF77EN-44" value="" style="shape=image;verticalLabelPosition=bottom;labelBackgroundColor=default;verticalAlign=top;aspect=fixed;imageAspect=0;image=data:image/png,iVBORw0KGgoAAAANSUhEUgAAAMgAAADICAYAAACtWK6eAAATSElEQVR4Xu2df4xdRRXHz32vfbtbut0tKL9MyS5aiC2StgT/QEy3NBKBJrAo4Q817ZJIJDW0a60GE9w2JMoPK62RNNGEloB/GCxdDIqp0i5qaoKBrkWKItKVRvqD4r5tS3f72veuc96+t112331v7vy8c+fcpKENM3NnvnM+b+bMnJkbAD2kACkQqUBA2pACpEC0AgQIWQcpUEcBAoTMgxQgQMgGSAExBWgEEdONcnmiAAHiSUdTM8UUIEDEdKNcnihAgHjS0dRMMQUIEDHdKJcnChAgnnQ0NVNMAQJETDfK5YkCBIgnHU3NFFOAABHTjXJ5ogAB4klHUzPFFCBAmG7DYdgOZ6EjG0JHyP5ACO2ZLLSFAO34dwjYn7Q9IeTLTQogz4wgXyrCCP6zBDAAWcjPzQWDaWuySHu8A6QMwxgsygB0BVlYGjAAGAgdTLz0QSBiER/NM8T+ORgEMMR+OF6e0xT0yxfpVgmpB2QyEJkM3E4wSBpoAAPMaAbPFeH5uS3BgGRpic+eWkCGR8OuGVkGRAiraHTQZ4dsdNmcZlhSBQiDooNNnVZVRopF+syCSq6hwBCDpZ/BsoWNLDg1S8WTCkBotEicLfYXS9CbBlCcBgTByGZgDTOPOxJnIlQhVMB5UJwEpAxGFvrYEmwX2aEDCjDHvliEHhdHFKcAwRWpGWehjxxvB6CoUUV06FtzQa9LtXcGkMp0ahsTt8Mlgamu0xTIs93I3jktwXYXtEk8IDhqZAuAYJCf4YJFcdaxvJdSgu6kT7sSDQiNGpzW5m4yDHfpSfIOfSIBIV/DXYsXqXlYgo1tLcEGkby68yQOEJpS6e7yZJZfnnLlYNncIBgPokzIkyhAhgvhIhZRu5Mc8YRYh/lq5IsBgyRBkcSJAYTgMG+NCX1joiBJBCAVZxxHDgo5T6jVmq4WC1VZloRoYeuAnBgNV0EGHic4TJugA+8rsRUuy/slVgGpTKv2EBwOGKulKtoeSawBQnBYsjgHX8sc98W2HHcrgOC5DRaFiyNHh4P9RVU2r4A1x904IOVNwALsYUdf6UCTeUNz+Y35Yg46Te+TGAfkxJkQV6sorsplU7VVdxY2PycXLDP5eqOAjIyFa1nIM65Y0UMKCClgOmTeGCC01yFkD5SptgLdpgIcjQBSia86SMu5ZO+KFMiz5d/FJkLljQBCfocis6BizitgyB/RDgiDAx1ydMzpIQXUKmBgp10rILSkq9YeqLRpCmhf+tUKyMhouCHIsNtH6CEFdCkQwHa29Nujr3hNJVMoiSZhqdhpCugMRdE2gpwohHvo3iqyZhMK4GnE1qZgsY53aQGksueBsVb0kAKmFNCyN6IFEFrWNWUT9J6qArpGEeWAVHyPfdR1pIBpBXT4IsoBYb7HNuZ7rDIpzu8G9sM/D74Pb7yThw/HWJwwPRMKXNAcwMIr2+GuW5bA5ZfOTbsy/SwEpVtlI5UCUjnngaOHkbPl7x0ZhvWbXoLDhU7I5lpV6pLKsm6c9zb03X9rKttWbRQLQelUGYKiFBDT+x5fWf8rOAbXprrDVTfu2rkHYNP30nvaQHW0r1JAmHOOAYkdqju1Vnlbtr0ELxyYZ+JVqXvHIytnwpJrOlPXrkqD8myapWwuqQwQ00u7NHqI23faRxGmjLIlX2WAmJ5erVi9E87MWljXSoqFkzCjcBg+PnsMRk5n4fSMK8hXYYq1Fl6H57Z8SZywpOdUGH6iBJDKeQ90zo1Mr7B/br7vBQhnXxXZVcGpt+Dh1QunTSXW/aAf9g8vSHoXa61f6gEBUDbNUgKIjZD2eoA0nX4DXngierXPd//FA0CAfaRHyaVzSgAxPb2qN4LgtOo73TPhi131V7d4pmhaf8YtFu4FIIqmWUoAsRGYGDWC4NRq19YVDc1v409+C38+9KmG6dKYwAtAFE2zpAGp+B/Dpg0pCpCLYT/84rEvN6zOMzv3wlN7P9YwXRoTeAIIqNg0lAbEhv9Rb4rVyP+oGrzPfogvgKjwQ6QBseF/NPJBdm+5ruEP/70P7oCDY59pmC6NCbwBRIEfIg2IrdD2eqtYjTbCXvv7Qfj2z//n7Z6IR4BI38SoAhBj4SWTf80b7YNEBeZh5O+jz45AdtYlaRwcuNrkDSAKHHUVgFiJL28ECFpK6dQQLJp3GhZ/+mL4ID8KrxwYpshfH3bSJ/1MsAuv58pceC0FiM3DUTyAcP2cepjIoxEEZA9RSQFiawULbZqCFcXJ5l0KF39DcnKGIfS2NQebRWskBYjN29p93ugT7exqvhULDsGanuWyxTiRPyzBxraWYINoZeUAsXwx3PL7dkFmdodo273Mx7tPlBZxZA9QSQFyshA+zoawtbbExCO3X9v4V4KEswMwDGd73+d8OJt+XhHJvRApQGxc0FDLFjCE/eDRIowUWiHMXcRpLv4km3XuXbj6EwGsu2epX3CMd7HURQ5ygNDn1PyhzN2WEiDu9h3VXLsCkt8RkRtB6P5d7f1LL5BTQPbGRQJETn/KnXAFCJCEdxBVz64CBIhd/entCVeAAGEdhKcDX9z7Hrx/qjnh3WW+ernMWbj8whLcuXx+w3P65mun/41eA4Ibhfc+NNDwfiz93eDGG3yKwar2iNeA+HwziSiS3oWaSH59ytlVLApWFEUEYN1tY95Mt7wdQe5cswNO5vw8Uy6OxnjORkeSZctPUn5vAeE5MIWXyAWFD6Al8yEUSjPrXlWapE7VXRefDkwRIBHWhJGr37r7imlTCTpo5cHl1ZNsggCpAUijsG7f/RcaQfjHaGed9KgpFu/dvDxTNH4Z3UpJgPD3V+oAwZtMXtp6c0MFfB5FCJCG5jGRIHWA8G6G0d28Kf6ADvkg0R/Q4d0Io7t5CRCecSR1Iwj6IHQ3b/2upykWDxrjaVIHCDaq0bU2dDdvyr9RSFOs+t8oxFHknq4z8NXuG6b9VFCAI+2D8I8fKR1BqgKgw37LDZfDgvmXwbHjJ+H3e9+BfUfneXure1UXmmLxI5LKKRZ/8/1MSYDw97uzgFDICH8nT01JwYr82jkLiM/7GPzdWzvlyhuO1/TPZMtNYn5vY7HKq1Wrd9JpwphWybuRGrPYxCb3GhDsFZpq8dsmwvHYuuVeXT/qPSBoHvhZNVyhwvt5TxWa+C3Gg5R0aQMMtjYFi0W72lkfRLTBlM8vBWgE8au/qbUxFSBAYgpGyf1SgADxq7+ptTEVIEBiCuZ7coxF2/+PQ3B8+FT509gXtbeUQ3GWXNOZSmkIkFR2q9pGVa9mPXJqTvkLXNlca80X4FkavKb0G3cvSQ0w3gOCv4i7//ImPDdwGPLnLo5lWUFpNFb6uImzUJiW5bbPthj5wizq8uyLr8GvXykKfcMR90zWrbzOeVC8BgTPdXx/66Azu+mmYqBwxNi265QQGFOJdn3n3WtAXLqZhNfQ8JcfnyPH8xO2yusfYN5v/nC38hsneW+KiTvCmkjvLSAuBSuigT3zwJV1QzxwNNz01KtwuNBZ00conj4Ks+A4XH91E/Tdf+s020I9nvxDEbKzLtFid65C4i0g+Onn/cMLtBiD6kI7m1+Hnz0UfUnCvQ/ugLdPdMQ6yDV5REItTBwEQ0h+9PULnfJLvAUEjergWPIvr240esiAjneAteVOKp9S1fuBwJHsmQevcSbgkQBR/XOvuLx6voerl9e5dCKRAFFs0KqKw5FjRuFwzQu0q+9Yft8uJStNqurMWw7v1Uq85elMR4DoVFegbLw4G/c67rplSd1piOsX19047+2aiwUCkmnNQoBolZevcJ7RYmpJrp+G5L0DmU9BfakIEH3acpWMhrL+7ktjf9LsptV/0rYky1VxBYkeWTkz8StaBIiCjhYtQvQIK27ordz0vuhrE5PPhcsfCBAL5oJTqqWfPCo8B8cjwpt+4/433U2Fzsh0MQEio55AXnTCH169kGtqUQ2k3PfmMTgyfK78tguaA/hwLIRjcK3A25OVpdEGaBJqS4AY7AVc///pAzdFrk5Vgfjja4fh38dbnVzCjSMnb3xZnDJVpyVAVCsaUR4640/3XV8TDgRj05Mvw77/srMWmmKhDDUz1mt4v8USq1DFiQkQxYLWKq5eeIXK0HIDTVH+iqTvhxAgyrt8eoFR3xtBZ/vRnWdjBRkaqK7xV+Do+tjq+Vx+menKESCaFY+aRvj+EZ5asifRJyFANAOy7raxmpuAru+E65INV/l2bV2hq/jY5RIgsSXjzxAVToGjx3efOstfkGcpEwVJAANzcsEy0S6QvXp0G4SwSvTlMvlMnAeJWuc38W4ZbZKQNzGQ2ATkZCF8PAxhrY0OMWGkUbFGroapm+6nhJwb6Z/TFHSLtl1qBEkzILi0u/uJz9fU9Qvr3xLV26t8iTiiG8B2NsXqERVeCpCR0XBDkIE+0ZfL5NM9gpD/IdM75/PaHkWCADa35oJe0dYQIBHKRXVsWgINRQ1GJJ/NsHirgJw4E97BBNspIppsHt0jSNSavkvXDclqrCq/1ajfEvTMaQm2i7ZFagQZDsP2bAHGbzoz/NgCxPWjsoa7qfw6m1G/xRIsm9sSDIi2mwChKZao7XDnsxnUyADpZIAMcVd2SkIpQLAsNs06yP7TIVoB0Xy6R5CoTk3LaUBR3UXyWbwFZYgt8XaK1LmaRx6QQriHbRZ2yVRCJK9uQOptdN205lXvAxTj9Jm1Cx4kNwmxjdKA2NoL0Q1IvV892iiMgweArSmW7AqWEkBsrWTpBgTFiVqepG+zxwPEYpRvN5ti9cer7UdTS48gtlayTAAStTxJfkg8k7N1qErWQVcygmAhJ8+E+0KARfFkk0ttApB6U4M71+wwemm0nFr2ctv6bIJsmLsyJ70MiIWgRROA1PNDaBThg87WHogK/0PZCGLDDzEBCApUb3pgqg58ppi8VI0+/aC5xtL+hzJAKn4I7oe0a270RPGmjLPREiVNtaJ73NbowWqUL+bYBmEQnP+OnaBhSjvp1feeKIRGD0+ZAqTeala17QTJdOuzCAdWRuoMyOTWKANkeDTsymZgjyCosbOZ9AF4QrZd+qBobLFjZJC9ljXGq+olVTK9UjbFmhhFDIedmLwhnSdkW+ZzaooMw2oxCMfti/JGvgNfp6HKplfKATG9mmXy8gSeUQQFxfMiP/7luxDOvsqqsZp8OYKx+JJDsO6epda/Xahq9aqqn7IpFhZoY9OwfHnbsyNGrvzkGUWqwla/PGvSUG28KylgVNsuG94+VUOlgGDhpp31aoNwNDnwr8NabWTB/MsSeXug1ka7Vbgy51zLCFIeRUbDDuas45IvPaSAUQVUjx7KfZCqGmzjEI/h4nFcekgBUwooHz20ATJcCBdlQ9hnShl6DymgY/TQBggWbCOAkczEUwUUHIyKUk65k159EfkinhqrhWbrGj20jiBYuK0VLQt9RK+0pIDqfY+pzdA2guCLKvsi6It0WNKPXptuBZTumteSSisg5VHE4uVy6bYNah27OL23rTnYrFMJ7YCQw66z+zwuW6NjPllVI4DYOC/isen40PR8MWA3JuaCQd2NNQJI2R8xHA6vWzgq36oCysLZG7XCGCDlqZaFs+uNBKD/75YCuletjK5i1ZKeNhDdMsgk1RZvKjmXY1MrBUdpedtldAQpT7XGb4SnpV/eHqJ0VQWGKhuCQyYlMQ5IxR/BiF+ExNglDyZFpXcpV8CYU259ilWtAAU0KjeitBaIN5P0yF4hKiqOlRFkAhJa2RLtN1/yWYUDRbYKSGW6ZfQ2FF8sKwXtzEMJemU+n6ZCA+uAECQqujF1ZVgfOaqKJgKQMiTjh6zwXi1y3FNn77EalBg4EjHFmiwdQRLLkNKYeIiFkHSbCCHhFS8xI8iE4872SWYUYI/pzynwCkbpNCnAgg+LReiR+eCmjpolDpBqIyksRUd3J7NMDB85NxM2mtwh51UisYCQ887bhU6nS5S/UUvJRANShoSmXE4TEFn5hE6pptY38YBUKzwyFq5lQ3EfrXI5z0uenQTcWGqC7UmcUjkLSLXidBGEw4AEsL04E3pdAKOqsjMjyNTl4BkhbKOVLkdgwekUMDAMnABUrYiTgEwsCY/Hcq1h/6ZrTlVbhoryxv2MjWzpdkBFcTbKcBqQCVBwFx4YKCGssiEivXOKAg6PGM77IPWMEXfiM0W4IxgfVShkxSy5+bAEW0pZ6HdxKhUlVSpGkFqNK9/HFcDtNKpopSTPNB5E/wJmwpBLzjevKqkFZLIACAtbIl7KYOkix57XNGqnw3PhDIqBc0V4HpphMI1QTG65F4B8ZAVs/Ex8FwJThiVkf2g6FkVNnhnIEAIRFuFvxWY2fTJ4YYIcympyewdIlGzlKVkJ2hk0HZkstLH/tjN42plxlH2ZAP+esoe1cajcpAAQBAz7gFIJ/lPKwEBap0xxu5AAiasYpfdKAQLEq+6mxsZVgACJqxil90oBAsSr7qbGxlWAAImrGKX3SgECxKvupsbGVYAAiasYpfdKAQLEq+6mxsZVgACJqxil90oBAsSr7qbGxlWAAImrGKX3SgECxKvupsbGVYAAiasYpfdKAQLEq+6mxsZVgACJqxil90qB/wPGAwlQ2wwenQAAAABJRU5ErkJggg==;" vertex="1" parent="1">
          <mxGeometry x="303.76" y="130" width="100" height="100" as="geometry" />
        </mxCell>
        <mxCell id="x7lhCnKFzgiBbyIF77EN-48" value="" style="shape=flexArrow;endArrow=classic;html=1;rounded=0;strokeColor=#000000;strokeWidth=2;fontSize=17;fillColor=#FFFFFF;" edge="1" parent="1">
          <mxGeometry width="50" height="50" relative="1" as="geometry">
            <mxPoint x="230" y="320" as="sourcePoint" />
            <mxPoint x="230" y="400" as="targetPoint" />
          </mxGeometry>
        </mxCell>
        <mxCell id="x7lhCnKFzgiBbyIF77EN-49" value="&lt;font style=&quot;font-size: 16px;&quot;&gt;结果返回&lt;/font&gt;" style="text;html=1;strokeColor=none;fillColor=none;align=center;verticalAlign=middle;whiteSpace=wrap;rounded=0;" vertex="1" parent="1">
          <mxGeometry x="150.64" y="320" width="70" height="50" as="geometry" />
        </mxCell>
        <mxCell id="x7lhCnKFzgiBbyIF77EN-50" value="" style="shape=flexArrow;endArrow=classic;html=1;rounded=0;strokeColor=#000000;strokeWidth=2;fontSize=17;fillColor=#FFFFFF;" edge="1" parent="1">
          <mxGeometry width="50" height="50" relative="1" as="geometry">
            <mxPoint x="280.0099999999999" y="400" as="sourcePoint" />
            <mxPoint x="280.0099999999999" y="320" as="targetPoint" />
          </mxGeometry>
        </mxCell>
      </root>
    </mxGraphModel>
  </diagram>
</mxfile>
